<?xml version="1.0" encoding="UTF-8" standalone="no"?>
<!-- Created with Inkscape (http://www.inkscape.org/) -->

<svg
   xmlns:dc="http://purl.org/dc/elements/1.1/"
   xmlns:cc="http://creativecommons.org/ns#"
   xmlns:rdf="http://www.w3.org/1999/02/22-rdf-syntax-ns#"
   xmlns:svg="http://www.w3.org/2000/svg"
   xmlns="http://www.w3.org/2000/svg"
   xmlns:xlink="http://www.w3.org/1999/xlink"
   xmlns:sodipodi="http://sodipodi.sourceforge.net/DTD/sodipodi-0.dtd"
   xmlns:inkscape="http://www.inkscape.org/namespaces/inkscape"
   width="1020"
   height="1020"
   id="svg2"
   sodipodi:version="0.32"
   inkscape:version="0.48.2 r9819"
   version="1.0"
   sodipodi:docname="base.svg"
   inkscape:output_extension="org.inkscape.output.svg.inkscape">
  <metadata
     id="metadata2425">
    <rdf:RDF>
      <cc:Work
         rdf:about="">
        <dc:format>image/svg+xml</dc:format>
        <dc:type
           rdf:resource="http://purl.org/dc/dcmitype/StillImage" />
        <dc:title></dc:title>
      </cc:Work>
    </rdf:RDF>
  </metadata>
  <defs
     id="defs4">
    <linearGradient
       id="linearGradient4624">
      <stop
         id="stop4626"
         offset="0"
         style="stop-color:#14314c;stop-opacity:1;" />
      <stop
         id="stop4628"
         offset="1"
         style="stop-color:#4d7baa;stop-opacity:1;" />
    </linearGradient>
    <linearGradient
       id="linearGradient4608">
      <stop
         style="stop-color:#071c31;stop-opacity:1;"
         offset="0"
         id="stop4610" />
      <stop
         style="stop-color:#0e3760;stop-opacity:1;"
         offset="1"
         id="stop4612" />
    </linearGradient>
    <inkscape:perspective
       sodipodi:type="inkscape:persp3d"
       inkscape:vp_x="0 : 510 : 1"
       inkscape:vp_y="0 : 1000 : 0"
       inkscape:vp_z="1020 : 510 : 1"
       inkscape:persp3d-origin="510 : 340 : 1"
       id="perspective56" />
    <inkscape:perspective
       sodipodi:type="inkscape:persp3d"
       inkscape:vp_x="0 : 526.18109 : 1"
       inkscape:vp_y="0 : 1000 : 0"
       inkscape:vp_z="744.09448 : 526.18109 : 1"
       inkscape:persp3d-origin="372.04724 : 350.78739 : 1"
       id="perspective10" />
    <inkscape:perspective
       id="perspective2481"
       inkscape:persp3d-origin="372.04724 : 350.78739 : 1"
       inkscape:vp_z="744.09448 : 526.18109 : 1"
       inkscape:vp_y="0 : 1000 : 0"
       inkscape:vp_x="0 : 526.18109 : 1"
       sodipodi:type="inkscape:persp3d" />
    <filter
       inkscape:collect="always"
       id="filter4504"
       x="-0.0645"
       width="1.129"
       y="-0.18763636"
       height="1.3752727">
      <feGaussianBlur
         inkscape:collect="always"
         stdDeviation="17.7375"
         id="feGaussianBlur4506" />
    </filter>
    <filter
       color-interpolation-filters="sRGB"
       inkscape:collect="always"
       id="filter4504-3"
       x="-0.064499997"
       width="1.1289999"
       y="-0.18763636"
       height="1.3752728">
      <feGaussianBlur
         inkscape:collect="always"
         stdDeviation="17.7375"
         id="feGaussianBlur4506-1" />
    </filter>
    <filter
       inkscape:collect="always"
       id="filter4596"
       x="-0.068147124"
       width="1.1362942"
       y="-0.5018737"
       height="2.0037474">
      <feGaussianBlur
         inkscape:collect="always"
         stdDeviation="5.789845"
         id="feGaussianBlur4598" />
    </filter>
    <linearGradient
       inkscape:collect="always"
       xlink:href="#linearGradient4624"
       id="linearGradient4614"
       x1="1545"
       y1="620"
       x2="1545"
       y2="400"
       gradientUnits="userSpaceOnUse" />
    <linearGradient
       inkscape:collect="always"
       xlink:href="#linearGradient4608"
       id="linearGradient4649"
       gradientUnits="userSpaceOnUse"
       x1="1745"
       y1="190"
       x2="1745"
       y2="70" />
  </defs>
  <sodipodi:namedview
     id="base"
     pagecolor="#ffffff"
     bordercolor="#666666"
     borderopacity="1.0"
     gridtolerance="10000"
     guidetolerance="10"
     objecttolerance="10"
     inkscape:pageopacity="0.0"
     inkscape:pageshadow="2"
     inkscape:zoom="1"
     inkscape:cx="1472.3966"
     inkscape:cy="715.83383"
     inkscape:document-units="px"
     inkscape:current-layer="layer7"
     showgrid="true"
     showguides="true"
     inkscape:guide-bbox="true"
     inkscape:window-width="1280"
     inkscape:window-height="992"
     inkscape:window-x="1600"
     inkscape:window-y="0"
     inkscape:window-maximized="1">
    <sodipodi:guide
       position="30,0"
       orientation="1,0"
       id="guide-30" />
    <sodipodi:guide
       position="30,0"
       orientation="1,0"
       id="guide8" />
    <sodipodi:guide
       position="35,0"
       orientation="1,0"
       id="guide-35" />
    <sodipodi:guide
       position="65,0"
       orientation="1,0"
       id="guide-65" />
    <sodipodi:guide
       position="70,0"
       orientation="1,0"
       id="guide-70" />
    <sodipodi:guide
       position="70,0"
       orientation="1,0"
       id="guide13" />
    <sodipodi:guide
       position="75,0"
       orientation="1,0"
       id="guide-75" />
    <sodipodi:guide
       position="105,0"
       orientation="1,0"
       id="guide-105" />
    <sodipodi:guide
       position="110,0"
       orientation="1,0"
       id="guide-110" />
    <sodipodi:guide
       position="110,0"
       orientation="1,0"
       id="guide18" />
    <sodipodi:guide
       position="115,0"
       orientation="1,0"
       id="guide-115" />
    <sodipodi:guide
       position="145,0"
       orientation="1,0"
       id="guide-145" />
    <sodipodi:guide
       position="150,0"
       orientation="1,0"
       id="guide-150" />
    <sodipodi:guide
       position="150,0"
       orientation="1,0"
       id="guide23" />
    <sodipodi:guide
       position="155,0"
       orientation="1,0"
       id="guide-155" />
    <sodipodi:guide
       position="185,0"
       orientation="1,0"
       id="guide-185" />
    <sodipodi:guide
       position="190,0"
       orientation="1,0"
       id="guide-190" />
    <sodipodi:guide
       position="190,0"
       orientation="1,0"
       id="guide28" />
    <sodipodi:guide
       position="195,0"
       orientation="1,0"
       id="guide-195" />
    <sodipodi:guide
       position="225,0"
       orientation="1,0"
       id="guide-225" />
    <sodipodi:guide
       position="230,0"
       orientation="1,0"
       id="guide-230" />
    <sodipodi:guide
       position="230,0"
       orientation="1,0"
       id="guide33" />
    <sodipodi:guide
       position="235,0"
       orientation="1,0"
       id="guide-235" />
    <sodipodi:guide
       position="265,0"
       orientation="1,0"
       id="guide-265" />
    <sodipodi:guide
       position="270,0"
       orientation="1,0"
       id="guide-270" />
    <sodipodi:guide
       position="270,0"
       orientation="1,0"
       id="guide38" />
    <sodipodi:guide
       position="275,0"
       orientation="1,0"
       id="guide-275" />
    <sodipodi:guide
       position="305,0"
       orientation="1,0"
       id="guide-305" />
    <sodipodi:guide
       position="310,0"
       orientation="1,0"
       id="guide-310" />
    <sodipodi:guide
       position="310,0"
       orientation="1,0"
       id="guide43" />
    <sodipodi:guide
       position="315,0"
       orientation="1,0"
       id="guide-315" />
    <sodipodi:guide
       position="345,0"
       orientation="1,0"
       id="guide-345" />
    <sodipodi:guide
       position="350,0"
       orientation="1,0"
       id="guide-350" />
    <sodipodi:guide
       position="350,0"
       orientation="1,0"
       id="guide48" />
    <sodipodi:guide
       position="355,0"
       orientation="1,0"
       id="guide-355" />
    <sodipodi:guide
       position="385,0"
       orientation="1,0"
       id="guide-385" />
    <sodipodi:guide
       position="390,0"
       orientation="1,0"
       id="guide-390" />
    <sodipodi:guide
       position="390,0"
       orientation="1,0"
       id="guide53" />
    <sodipodi:guide
       position="395,0"
       orientation="1,0"
       id="guide-395" />
    <sodipodi:guide
       position="425,0"
       orientation="1,0"
       id="guide-425" />
    <sodipodi:guide
       position="430,0"
       orientation="1,0"
       id="guide-430" />
    <sodipodi:guide
       position="430,0"
       orientation="1,0"
       id="guide58" />
    <sodipodi:guide
       position="435,0"
       orientation="1,0"
       id="guide-435" />
    <sodipodi:guide
       position="465,0"
       orientation="1,0"
       id="guide-465" />
    <sodipodi:guide
       position="470,0"
       orientation="1,0"
       id="guide-470" />
    <sodipodi:guide
       position="470,0"
       orientation="1,0"
       id="guide63" />
    <sodipodi:guide
       position="475,0"
       orientation="1,0"
       id="guide-475" />
    <sodipodi:guide
       position="505,0"
       orientation="1,0"
       id="guide-505" />
    <sodipodi:guide
       position="510,0"
       orientation="1,0"
       id="guide-510" />
    <sodipodi:guide
       position="510,0"
       orientation="1,0"
       id="guide68" />
    <sodipodi:guide
       position="515,0"
       orientation="1,0"
       id="guide-515" />
    <sodipodi:guide
       position="545,0"
       orientation="1,0"
       id="guide-545" />
    <sodipodi:guide
       position="550,0"
       orientation="1,0"
       id="guide-550" />
    <sodipodi:guide
       position="550,0"
       orientation="1,0"
       id="guide73" />
    <sodipodi:guide
       position="555,0"
       orientation="1,0"
       id="guide-555" />
    <sodipodi:guide
       position="585,0"
       orientation="1,0"
       id="guide-585" />
    <sodipodi:guide
       position="590,0"
       orientation="1,0"
       id="guide-590" />
    <sodipodi:guide
       position="590,0"
       orientation="1,0"
       id="guide78" />
    <sodipodi:guide
       position="595,0"
       orientation="1,0"
       id="guide-595" />
    <sodipodi:guide
       position="625,0"
       orientation="1,0"
       id="guide-625" />
    <sodipodi:guide
       position="630,0"
       orientation="1,0"
       id="guide-630" />
    <sodipodi:guide
       position="630,0"
       orientation="1,0"
       id="guide83" />
    <sodipodi:guide
       position="635,0"
       orientation="1,0"
       id="guide-635" />
    <sodipodi:guide
       position="665,0"
       orientation="1,0"
       id="guide-665" />
    <sodipodi:guide
       position="670,0"
       orientation="1,0"
       id="guide-670" />
    <sodipodi:guide
       position="670,0"
       orientation="1,0"
       id="guide88" />
    <sodipodi:guide
       position="675,0"
       orientation="1,0"
       id="guide-675" />
    <sodipodi:guide
       position="705,0"
       orientation="1,0"
       id="guide-705" />
    <sodipodi:guide
       position="710,0"
       orientation="1,0"
       id="guide-710" />
    <sodipodi:guide
       position="710,0"
       orientation="1,0"
       id="guide93" />
    <sodipodi:guide
       position="715,0"
       orientation="1,0"
       id="guide-715" />
    <sodipodi:guide
       position="745,0"
       orientation="1,0"
       id="guide-745" />
    <sodipodi:guide
       position="750,0"
       orientation="1,0"
       id="guide-750" />
    <sodipodi:guide
       position="750,0"
       orientation="1,0"
       id="guide98" />
    <sodipodi:guide
       position="755,0"
       orientation="1,0"
       id="guide-755" />
    <sodipodi:guide
       position="785,0"
       orientation="1,0"
       id="guide-785" />
    <sodipodi:guide
       position="790,0"
       orientation="1,0"
       id="guide-790" />
    <sodipodi:guide
       position="790,0"
       orientation="1,0"
       id="guide103" />
    <sodipodi:guide
       position="795,0"
       orientation="1,0"
       id="guide-795" />
    <sodipodi:guide
       position="825,0"
       orientation="1,0"
       id="guide-825" />
    <sodipodi:guide
       position="830,0"
       orientation="1,0"
       id="guide-830" />
    <sodipodi:guide
       position="830,0"
       orientation="1,0"
       id="guide108" />
    <sodipodi:guide
       position="835,0"
       orientation="1,0"
       id="guide-835" />
    <sodipodi:guide
       position="865,0"
       orientation="1,0"
       id="guide-865" />
    <sodipodi:guide
       position="870,0"
       orientation="1,0"
       id="guide-870" />
    <sodipodi:guide
       position="870,0"
       orientation="1,0"
       id="guide113" />
    <sodipodi:guide
       position="875,0"
       orientation="1,0"
       id="guide-875" />
    <sodipodi:guide
       position="905,0"
       orientation="1,0"
       id="guide-905" />
    <sodipodi:guide
       position="910,0"
       orientation="1,0"
       id="guide-910" />
    <sodipodi:guide
       position="910,0"
       orientation="1,0"
       id="guide118" />
    <sodipodi:guide
       position="915,0"
       orientation="1,0"
       id="guide-915" />
    <sodipodi:guide
       position="945,0"
       orientation="1,0"
       id="guide-945" />
    <sodipodi:guide
       position="950,0"
       orientation="1,0"
       id="guide-950" />
    <sodipodi:guide
       position="950,0"
       orientation="1,0"
       id="guide123" />
    <sodipodi:guide
       position="955,0"
       orientation="1,0"
       id="guide-955" />
    <sodipodi:guide
       position="985,0"
       orientation="1,0"
       id="guide-985" />
    <sodipodi:guide
       position="990,0"
       orientation="1,0"
       id="guide-990" />
    <inkscape:grid
       type="xygrid"
       id="grid2390"
       visible="true"
       enabled="true"
       color="#0000ff"
       opacity="0.0627451"
       empcolor="#0000ff"
       empopacity="0.1254902"
       dotted="false"
       spacingx="1px"
       spacingy="1px"
       originx="5px"
       originy="0px" />
  </sodipodi:namedview>
  <g
     inkscape:groupmode="layer"
     id="layer1"
     inkscape:label="BG"
     sodipodi:insensitive="true">
    <rect
       style="color:#000000;fill:#000000;fill-opacity:1;fill-rule:evenodd;stroke:none;stroke-width:0.75;marker:none;visibility:visible;display:inline;overflow:visible;enable-background:accumulate"
       id="rect3123"
       width="1200"
       height="1120"
       x="-75"
       y="-60" />
  </g>
  <g
     inkscape:groupmode="layer"
     id="layer2"
     inkscape:label="Header"
     sodipodi:insensitive="true">
    <g
       id="g4396"
       transform="matrix(0.16639954,0,0,0.16639954,190.24244,-10.397405)">
      <g
         id="layer1-7"
         transform="translate(-801.04707,391.67194)" />
      <g
         transform="translate(-801.04707,22.534107)"
         style="display:inline"
         inkscape:label="simpleLogo"
         id="layer6" />
      <path
         d="m -185.15625,79.90625 c -142.71666,0.987285 -312.96554,26.8406 -415.65625,191.78125 a 180.98239,180.98239 0 0 0 -0.0937,0.1875 c -82.0952,132.20128 -83.96778,287.28724 -28.03125,423.34375 55.93653,136.05651 190.29118,259.0687 367.125,279.3125 A 180.98239,180.98239 0 0 0 -83.1875,706.5625 c -11.866859,-21.26173 -20.56781,-103.82819 -2.40625,-141.53125 18.161558,-37.70306 25.120805,-67.50623 163.0625,-50.59375 A 180.98239,180.98239 0 0 0 245.03125,227.25 C 179.53131,138.64559 116.87286,127.55427 52.03125,109.125 -12.810364,90.695725 -83.07366,81.001976 -157,80.03125 c -9.24146,-0.12135 -18.64181,-0.190819 -28.15625,-0.125 z"
         inkscape:href="#path2488-5-5"
         id="path3384-4"
         style="fill:#cd7b1f;fill-opacity:1;fill-rule:evenodd;stroke:#ffffff;stroke-width:10;stroke-miterlimit:4;stroke-opacity:1;stroke-dasharray:none;display:inline"
         xlink:href="#path2488-5-5"
         inkscape:original="M -159.375 260.96875 C -276.15061 259.43537 -397.74995 287.93772 -447.1875 367.34375 C -538.08616 513.72161 -463.2481 769.33225 -241.21875 794.75 C -331.46452 633.05761 -284.29992 287.75633 99.5 334.8125 C 69.37495 294.06113 -42.599394 262.50213 -159.375 260.96875 z "
         inkscape:radius="180.96429"
         sodipodi:type="inkscape:offset"
         transform="translate(7.1205011e-7,1.9759741e-5)" />
      <g
         id="g4387">
        <path
           sodipodi:type="inkscape:offset"
           inkscape:radius="88.910545"
           inkscape:original="M -159.375 260.96875 C -276.15061 259.43537 -397.74995 287.93772 -447.1875 367.34375 C -538.08616 513.72161 -463.2481 769.33225 -241.21875 794.75 C -331.46452 633.05761 -284.29992 287.75633 99.5 334.8125 C 69.37495 294.06113 -42.599394 262.50213 -159.375 260.96875 z "
           xlink:href="#path2488-5-5"
           style="fill:#deb01f;fill-opacity:0.94117647;fill-rule:evenodd;stroke:#ffffff;stroke-width:10;stroke-miterlimit:4;stroke-opacity:1;stroke-dasharray:none;display:inline"
           id="path3384"
           inkscape:href="#path2488-5-5"
           d="m -183.1875,172.0625 c -125.95236,1.58316 -265.43886,29.37528 -339.46875,148.28125 a 88.919436,88.919436 0 0 0 -0.0625,0.0937 c -63.45401,102.18261 -66.40024,229.50457 -21.0625,339.78125 45.33774,110.27668 149.08487,206.4641 292.4375,222.875 a 88.919436,88.919436 0 0 0 87.75,-131.6875 c -28.78369,-51.57143 -38.52434,-156.58683 -4.9375,-226.3125 C -134.94441,455.36808 -76.701933,402.78476 88.6875,423.0625 A 88.919436,88.919436 0 0 0 171,281.96875 C 131.1568,228.07124 82.313352,213.41293 26.875,197.65625 -28.563352,181.89957 -92.196625,172.92944 -158.21875,172.0625 c -8.2531,-0.10837 -16.57193,-0.10554 -24.96875,0 z" />
        <path
           sodipodi:nodetypes="cccc"
           id="path2488-5-5"
           d="M -447.1778,367.33474 C -348.30269,208.52267 39.23713,253.31084 99.48723,334.81359 -284.31269,287.75742 -331.4563,633.06318 -241.21053,794.75557 -463.23988,769.33782 -538.07646,513.7126 -447.1778,367.33474 z"
           style="fill:#d40000;fill-opacity:1;fill-rule:evenodd;stroke:#ffffff;stroke-width:10;stroke-miterlimit:4;stroke-opacity:1;stroke-dasharray:none;display:inline"
           inkscape:connector-curvature="0" />
        <flowRoot
           xml:space="preserve"
           id="flowRoot2994"
           style="font-size:480px;font-style:normal;font-variant:normal;font-weight:bold;font-stretch:normal;line-height:125%;letter-spacing:0px;word-spacing:0px;fill:#000000;fill-opacity:1;stroke:none;font-family:Josefin Slab;-inkscape-font-specification:Josefin Slab Bold"
           transform="translate(-801.26582,597.5362)"><flowRegion
             id="flowRegion2996"><rect
               id="rect2998"
               width="2645.7202"
               height="1522.1294"
               x="878.70563"
               y="0.20563971"
               style="font-size:480px;font-style:normal;font-variant:normal;font-weight:bold;font-stretch:normal;font-family:Josefin Slab;-inkscape-font-specification:Josefin Slab Bold" /></flowRegion><flowPara
             id="flowPara3000"
             style="font-size:280px;font-style:normal;font-variant:normal;font-weight:300;font-stretch:normal;text-align:start;line-height:87.99999952%;writing-mode:lr-tb;text-anchor:start;fill:#ffffff;font-family:Josefin Slab;-inkscape-font-specification:Josefin Slab Light">Lucky Bead</flowPara><flowPara
             id="flowPara3002"
             style="font-size:280px;font-style:normal;font-variant:normal;font-weight:600;font-stretch:normal;text-align:start;line-height:87.99999952%;writing-mode:lr-tb;text-anchor:start;fill:#ffffff;font-family:Josefin Slab;-inkscape-font-specification:Josefin Slab Semi-Bold">Consulting</flowPara></flowRoot>      </g>
    </g>
    <g
       id="layer2-4"
       inkscape:label="Logo"
       style="display:none"
       transform="translate(-801.04707,22.534107)">
      <g
         id="g3282"
         transform="matrix(5.2266132,0,0,5.2266132,214.13939,-55.464215)">
        <g
           style="display:none"
           id="layer1-8"
           inkscape:label="Layer 1">
          <image
             xlink:href="/home/faris/workspace/projects/luckybead/web/old/TheLuckyBead/bead_pics/Bead150.png"
             sodipodi:absref="/home/faris/workspace/projects/luckybead/web/old/TheLuckyBead/bead_pics/Bead150.png"
             width="126.2963"
             height="103.85185"
             id="image2483"
             x="0.66666186"
             y="11.568527" />
        </g>
        <g
           inkscape:label="Bead_Draw"
           id="layer2-3">
          <path
             sodipodi:nodetypes="csssssz"
             id="path2488"
             d="M 1.7777778,62.222222 C 4.745643,38.776086 4.0749295,40.082181 8,33.777778 26.917625,3.3925059 101.06504,11.961759 112.59259,27.555556 c 14.31582,19.365601 15.11111,31.703703 14.51852,37.925925 -0.59259,6.222223 -10.66667,35.851849 -34.666666,44.444449 -6.973914,2.49684 -30.836692,6.47202 -45.037037,5.62963 C 12.444444,113.48148 -1.1851852,85.62963 1.7777778,62.222222 z"
             style="fill:#d40000;fill-opacity:1;fill-rule:evenodd;stroke:#000000;stroke-width:1px;stroke-linecap:butt;stroke-linejoin:miter;stroke-opacity:1"
             inkscape:connector-curvature="0" />
        </g>
        <g
           inkscape:label="Bead_Hole"
           id="layer3">
          <path
             sodipodi:nodetypes="csssz"
             id="path2491"
             d="M 9.4814811,41.481482 C 16.148148,40.444444 24.888889,46.518519 26.962963,69.037037 29.037038,91.555556 25.185185,97.777778 22.814815,98.074074 20.444444,98.37037 5.037037,87.703704 3.8518519,74.37037 2.6666667,61.037037 3.1444018,42.46725 9.4814811,41.481482 z"
             style="fill:#2b0000;fill-opacity:1;fill-rule:evenodd;stroke:#000000;stroke-width:1px;stroke-linecap:butt;stroke-linejoin:miter;stroke-opacity:1"
             inkscape:connector-curvature="0" />
        </g>
        <g
           inkscape:label="Pattern"
           id="layer4">
          <path
             id="path2514"
             d="M 41.481481,110.81481 40.592593,90.962963 c 0,0 8.296296,8.296296 12.444444,7.407407 4.148148,-0.888889 10.074074,-8.592592 10.074074,-8.592592 l 4.148148,1.481481 3.851852,-4.74074 0.296296,-10.370371 c 0,0 5.037037,-2.074074 8,-5.925926 2.962963,-3.851852 3.25926,-11.555555 3.25926,-11.555555 L 85.62963,56 l 3.851851,2.666667 2.666667,-4.740741 c 0,0 -16.888889,-18.666667 -18.962963,-19.555556 -2.074074,-0.888889 19.851852,13.925926 24,19.25926 4.148145,5.333333 3.259255,-6.222223 1.481482,-7.111111 -1.777778,-0.888889 -7.703704,-6.814815 -7.703704,-6.814815 l 10.666667,7.111111 3.25926,-0.888889 -7.407409,-8.592593 c 0,0 -15.407407,-8.888889 -20.444444,-8.296296 C 72,29.62963 96,34.962963 99.851852,36.148148 c 3.851848,1.185185 7.111108,0 7.111108,0 0,0 -13.037034,-9.777778 -17.777775,-10.37037 -4.740741,-0.592593 15.703705,1.185185 15.703705,1.185185 l -4.14815,-3.851852 -17.185184,0.296296 14.518518,-0.888888 c 0,0 -5.62963,-3.555556 -7.703704,-3.25926 -2.074074,0.296297 -16.888889,3.555556 -16.888889,3.555556 l 18.962963,-5.037037 -8,-1.481482 -13.333333,4.740741 10.37037,-5.333333 -4.74074,-0.888889 -11.555556,5.037037 10.666667,-4.444445 -11.259259,-1.185185 -3.851852,1.185185 -1.185185,-0.592592 -9.185186,-0.296296 0.592593,4.74074 7.111111,-2.666666 c 0,0 -26.666667,12.148148 -27.851852,18.37037 -1.185185,6.222222 -2.666666,14.814815 0.592593,20.444444 3.259259,5.62963 6.222222,12.740741 10.962963,11.851852 4.740741,-0.888889 2.666666,1.185185 1.481481,2.666667 -1.185185,1.481481 -7.111111,2.666667 -8.592592,4.740741 -1.481482,2.074074 -0.888889,26.074073 -0.888889,26.074073 l -1.185185,-24.296296 -4.444445,22.518519 5.62963,3.851847 -2.666667,0.88889 -4.444444,-4.444441 c 0,0 -0.592593,7.407411 2.074074,8.592591 2.666666,1.18519 10.37037,0.88889 10.37037,0.88889 l 2.37037,2.07407 z"
             style="fill:#ecba1c;fill-opacity:1;fill-rule:evenodd;stroke:#000000;stroke-width:1px;stroke-linecap:butt;stroke-linejoin:miter;stroke-opacity:1"
             inkscape:connector-curvature="0" />
          <path
             id="path2516"
             d="m 57.777778,89.481481 c 0,0 -5.037037,5.62963 -8,2.074075 C 46.814815,88 43.259259,78.518519 45.925926,76.148148 c 2.666667,-2.37037 5.333333,1.777778 5.333333,1.777778 0,0 -4.444444,2.962963 -1.777778,5.62963 2.666667,2.666666 4.444445,5.037037 5.037038,3.851851 0.592592,-1.185185 2.074074,-4.74074 2.074074,-4.74074 l 6.518518,-8 5.333333,0.592592 -6.814814,-2.37037 -6.222223,-9.481482 -2.666666,7.111112 L 55.703704,80 50.962963,72 c 0,0 3.851852,-7.703704 0.888889,-8.296296 C 48.888889,63.111111 44.148148,64.592593 41.481481,60.740741 38.814815,56.888889 33.185185,52.444444 34.962963,48 c 1.777778,-4.444444 7.703704,-9.777778 12.148148,-10.074074 4.444445,-0.296296 10.666667,5.333333 11.259259,6.518518 0.592593,1.185186 2.666667,10.666667 -1.481481,10.370371 -4.148148,-0.296296 -8.592593,0.296296 -10.37037,-1.777778 -1.777778,-2.074074 -1.185186,-5.333333 -0.296297,-7.703704 0.888889,-2.37037 3.851852,-1.481481 3.851852,-1.481481 0,0 -0.296296,5.925926 1.481482,6.518518 1.777777,0.592593 3.555555,0.296297 3.555555,-1.777777 0,-2.074074 0.888889,-3.555556 -0.592592,-5.037037 C 53.037037,42.074074 51.555556,39.111111 49.481481,40 c -2.074074,0.888889 -5.629629,1.185185 -6.222222,2.962963 -0.592592,1.777778 -4.74074,4.444444 -1.185185,7.703704 3.555556,3.259259 3.259259,9.481481 7.111111,9.481481 3.851852,0 9.185185,0.592593 10.962963,-1.777778 C 61.925926,56 63.407407,54.814815 64,51.555556 64.592593,48.296296 64,41.777778 61.037037,39.111111 58.074074,36.444444 57.185185,33.185185 56,32.592593 54.814815,32 64.592593,42.666667 64.592593,42.666667 l 2.962963,9.185185 c 0,0 1.185185,5.333333 2.962963,5.925926 1.777777,0.592592 5.333333,3.259259 5.925925,0.296296 0.592593,-2.962963 -1.481481,-6.518518 -3.555555,-8.888889 C 70.814815,46.814815 68.740741,41.481481 66.666667,40 64.592593,38.518519 62.222222,34.37037 62.222222,34.37037 l 9.481482,9.777778 5.629629,11.259259 c 0,0 0.888889,7.111112 -1.185185,8.888889 -2.074074,1.777778 -4.740741,4.148148 -4.740741,4.148148 l -0.592592,-5.037037 0.888889,-3.555555 c 0,0 -9.481482,0.888889 -11.25926,2.666667 -1.777777,1.777777 -2.962963,6.222222 -0.592592,7.111111 2.37037,0.888889 8.296296,5.925926 9.777778,5.333333 1.481481,-0.592593 10.962963,-5.037037 11.259259,-8.296296 0.296296,-3.25926 4.740741,-8.296297 2.666667,-11.25926 C 81.481481,52.444444 79.703704,48 77.925926,46.222222 76.148148,44.444444 74.074074,42.074074 72.296296,39.703704 70.518519,37.333333 85.037037,54.814815 85.037037,54.814815 l 0,0.296296 c 0,0 -2.074074,6.518519 -2.37037,8 C 82.37037,64.592593 78.222222,72 75.555556,73.481481 c -2.666667,1.481482 -8.888889,3.851852 -8.888889,3.851852 l -8.888889,12.148148 z"
             style="fill:#ec8e1c;fill-opacity:1;fill-rule:evenodd;stroke:#000000;stroke-width:1px;stroke-linecap:butt;stroke-linejoin:miter;stroke-opacity:1"
             inkscape:connector-curvature="0" />
          <path
             id="path2518"
             d="m 93.62963,105.48148 -5.925926,0.59259 c 0,0 5.629629,-7.111107 8.592592,-7.7037 2.962963,-0.592592 2.370371,0.888889 1.481482,3.25926 -0.888889,2.37037 2.074074,1.18518 4.148152,0 2.07407,-1.18519 8,-6.222223 8,-6.222223 l -4.44445,2.666667 c 0,0 7.11111,-11.259259 8.88889,-13.037037 1.77778,-1.777778 -3.25926,-17.481481 -3.25926,-21.333333 0,-3.851852 -2.07407,-21.62963 0.2963,-25.185185 2.37037,-3.555556 6.22222,-2.962963 6.22222,-2.962963 l 9.48148,23.407407 c 0,0 -0.2963,13.62963 -2.96296,14.222222 -2.66667,0.592593 -5.03704,1.481482 -5.62963,-2.962963 -0.59259,-4.444444 -1.18519,-9.777778 0,-13.333333 1.18518,-3.555556 1.77778,-4.740741 3.85185,-3.259259 2.07407,1.481481 2.66667,1.777777 2.66667,5.629629 0,3.851852 2.66666,10.074074 -0.5926,8.592593 -3.25925,-1.481482 -2.07407,-2.666667 -3.85185,-5.62963 -1.77778,-2.962963 -0.59259,-6.814815 1.18519,-5.333333 1.77778,1.481481 1.48148,2.666667 1.18518,4.148148 l 0.2963,0.592593 c 0,0 0.2963,-5.62963 -1.77778,-6.814815 -2.07407,-1.185185 -1.77778,8.592592 -0.88889,12.740741 0.88889,4.148148 2.96297,2.962963 4.74074,2.666666 1.77778,-0.296296 0.5926,-10.962963 0.5926,-10.962963 l -3.55556,-8.888889 c 0,0 -4.14815,-6.222222 -5.62963,-6.814814 -1.48148,-0.592593 -3.25926,5.925925 -4.14815,9.185185 -0.88889,3.259259 4.74074,24 4.74074,24 l 5.92593,0.296296 c 0,0 -3.85185,8.296296 -5.03704,10.37037 -1.18518,2.074074 -16,17.185183 -16,17.185183 l -8.59259,0.88889 z"
             style="fill:#ecba1c;fill-opacity:1;fill-rule:evenodd;stroke:#000000;stroke-width:1px;stroke-linecap:butt;stroke-linejoin:miter;stroke-opacity:1"
             inkscape:connector-curvature="0" />
          <path
             id="path2520"
             d="m 21.333333,48 2.370371,-7.407407 c 0,0 -4.148148,-1.481482 -5.333334,0.296296 -1.185185,1.777778 -1.777777,-1.185185 -1.777777,-1.185185 l 8,-11.25926 c 0,0 -7.407408,1.481482 -9.185186,4.740741 -1.777777,3.259259 1.185186,-3.259259 1.185186,-3.259259 l -5.62963,5.925926 -0.296296,1.777778 0.296296,-4.740741 -2.6666667,4.740741 -2.3703704,0.296296 -0.2962963,5.62963 -0.5925926,0.296296 c 0,0 2.962963,-2.962963 7.111111,-3.555556 C 16.296296,39.703704 21.333333,48 21.333333,48 z"
             style="fill:#ecba1c;fill-opacity:1;fill-rule:evenodd;stroke:#000000;stroke-width:1px;stroke-linecap:butt;stroke-linejoin:miter;stroke-opacity:1"
             inkscape:connector-curvature="0" />
          <path
             id="path2522"
             d="m 53.333333,115.25926 5.037037,-5.03704 -11.851851,1.48148 -1.777778,-4.74074 10.666666,-3.55555 L 43.259259,104 l -1.481481,7.40741 -3.555556,-2.07408 -4.148148,2.96297 -0.296296,0.29629 c 2.37037,1.18519 19.555555,2.66667 19.555555,2.66667 z"
             style="fill:#ecba1c;fill-opacity:1;fill-rule:evenodd;stroke:#000000;stroke-width:1px;stroke-linecap:butt;stroke-linejoin:miter;stroke-opacity:1"
             inkscape:connector-curvature="0" />
          <path
             id="path3299"
             d="m 42.074074,29.037037 c 0,0 17.777778,-13.333333 21.62963,-13.037037 3.851852,0.296296 -1.777778,4.148148 -1.777778,4.148148 L 50.074074,29.037037 64,20.444444 l 3.851852,0.592593 7.407407,-4.740741 -8.592592,6.814815 2.666666,0.296296 15.703704,-6.222222 -15.111111,6.518519 3.555555,1.481481 15.703704,-4.444444 3.555556,0.296296 L 73.777778,24.888889 77.62963,26.37037 97.185185,24 l -8.888889,0.888889 -8.888889,2.37037 12.444445,0.296297 8.296298,5.629629 -4.740743,0.296296 -10.37037,-4.444444 -10.37037,-1.481481 1.185185,4.148148 L 90.37037,35.259259 97.185185,40 l -0.296296,0.592593 -9.481482,-2.962963 3.25926,3.555555 6.222222,6.518519 0.296296,3.555555 L 84.740741,40 74.962963,33.481481 69.037037,32.296296 87.703704,51.555556 86.518519,52.148148 69.037037,34.962963 72,41.185185 79.111111,50.37037 78.222222,52.148148 64.888889,33.777778 58.666667,31.407407 68.740741,44.740741 57.777778,31.703704 53.333333,29.037037 c 0,0 2.074074,6.222222 3.851852,7.703704 1.777778,1.481481 5.62963,6.222222 5.62963,9.185185 0,2.962963 -1.185185,9.777778 -3.555556,10.962963 C 56.888889,58.074074 56.888889,56 56.888889,56 c 0,0 8,-2.37037 4.740741,-9.185185 C 58.37037,40 50.37037,35.555556 46.814815,35.555556 c -3.555556,0 -11.555556,7.407407 -11.555556,7.407407 0,0 -3.259259,4.148148 -2.666666,6.222222 0.592592,2.074074 4.444444,11.851852 7.111111,13.037037 2.666666,1.185185 10.37037,3.259259 11.555555,2.962963 1.185185,-0.296296 -1.481481,4.444445 -1.481481,4.444445 l -4.148148,-0.888889 1.185185,-2.666667 c 0,0 -7.111111,-0.592593 -8.592593,-1.481481 -1.481481,-0.888889 -7.703703,-10.666667 -7.703703,-12.444445 0,-1.777778 0.592592,-11.851852 1.185185,-13.333333 0.592592,-1.481482 7.703703,-3.259259 9.481481,-3.555556 1.777778,-0.296296 8.296296,-2.962963 8.296296,-2.962963 L 40,33.185185 33.777778,34.37037 c 0,0 0.888889,-5.037037 4.148148,-4.444444 3.259259,0.592593 4.444444,-0.592593 4.148148,-0.888889 z"
             style="fill:#ec8e1c;fill-opacity:1;fill-rule:evenodd;stroke:#000000;stroke-width:1px;stroke-linecap:butt;stroke-linejoin:miter;stroke-opacity:1"
             inkscape:connector-curvature="0" />
          <path
             id="path3301"
             d="m 7.4074074,40.592593 2.0740741,-2.666667 0.8888885,1.185185 2.666667,-4.148148 0.888889,1.481481 6.518518,-6.222222 -5.037037,7.703704 6.518519,-6.814815 -6.222222,7.703704 1.481481,3.555555 2.666667,0 2.074074,-0.888889 -1.185185,3.25926 -1.185185,-0.296297 c 0,0 -3.555556,-5.037037 -7.111112,-4.74074 C 8.8888889,40 7.4074074,40.592593 7.4074074,40.592593 z"
             style="fill:#ec8e1c;fill-opacity:1;fill-rule:evenodd;stroke:#000000;stroke-width:1px;stroke-linecap:butt;stroke-linejoin:miter;stroke-opacity:1"
             inkscape:connector-curvature="0" />
          <path
             id="path3303"
             d="m 43.555556,71.111111 4.74074,1.185185 2.074074,2.074074 -3.259259,0 -3.555555,0.888889 c 0,0 -0.296297,10.370371 1.185185,11.555556 1.481481,1.185185 4.148148,7.703704 6.222222,7.703704 2.074074,0 13.925926,-7.703704 13.925926,-9.481482 0,-1.777778 3.851852,-5.62963 3.851852,-5.62963 l 1.185185,4.740741 -0.888889,2.666667 -2.666667,2.37037 L 63.703704,88 l 3.555555,-4.148148 -4.148148,4.740741 c 0,0 -7.703704,8 -10.37037,8 -2.666667,0 -12.148148,-8.888889 -12.148148,-8.888889 0,0 -2.666667,2.37037 -2.370371,4.148148 0.296297,1.777778 0.888889,14.222218 0.888889,14.222218 L 37.037037,96 l 0.296296,9.18519 -5.925926,1.77777 -2.37037,-3.85185 L 32,105.18519 36.148148,104.2963 35.555556,100.44444 29.333333,98.074074 32,86.814815 l -0.592593,10.962963 2.962963,3.555552 1.777778,-7.7037 1.777778,-8.296297 4.740741,1.777778 -3.555556,-3.555555 3.259259,1.777777 L 41.777778,80 36.444444,85.925926 35.259259,85.333333 40,79.111111 l -1.777778,-0.296296 -3.555555,5.037037 2.37037,-8.296296 4.148148,-0.296297 -0.296296,-2.074074 -1.777778,0.296296 c 0,0 3.851852,-1.481481 4.444445,-2.37037 z"
             style="fill:#ec8e1c;fill-opacity:1;fill-rule:evenodd;stroke:#000000;stroke-width:1px;stroke-linecap:butt;stroke-linejoin:miter;stroke-opacity:1"
             inkscape:connector-curvature="0" />
        </g>
        <g
           style="display:inline"
           inkscape:label="Colour"
           id="layer5" />
      </g>
    </g>
  </g>
  <g
     inkscape:groupmode="layer"
     id="layer7"
     inkscape:label="colour-legend"
     sodipodi:insensitive="true">
    <rect
       style="color:#000000;fill:#000000;fill-opacity:1;fill-rule:evenodd;stroke:none;stroke-width:0.75;marker:none;visibility:visible;display:inline;overflow:visible;enable-background:accumulate"
       id="rect4410"
       width="720"
       height="700"
       x="1165"
       y="-60" />
    <flowRoot
       xml:space="preserve"
       id="flowRoot4412"
       style="font-size:36px;font-style:normal;font-variant:normal;font-weight:normal;font-stretch:normal;line-height:125%;letter-spacing:0px;word-spacing:0px;fill:#ffffff;fill-opacity:1;stroke:none;font-family:Josefin Slab;-inkscape-font-specification:Josefin Slab"
       transform="translate(-4.6875,-9.90625)"><flowRegion
         id="flowRegion4414"><rect
           id="rect4416"
           width="355.31775"
           height="63.850475"
           x="1189.6823"
           y="-43.850475"
           style="fill:#ffffff" /></flowRegion><flowPara
         id="flowPara4418">Legend:</flowPara></flowRoot>    <flowRoot
       xml:space="preserve"
       id="flowRoot4420"
       style="font-size:36px;font-style:normal;font-variant:normal;font-weight:normal;font-stretch:normal;line-height:125%;letter-spacing:0px;word-spacing:0px;fill:#000000;fill-opacity:1;stroke:none;font-family:Josefin Slab;-inkscape-font-specification:Josefin Slab"
       transform="translate(-18.03125,-53.96875)"><flowRegion
         id="flowRegion4422"><rect
           id="rect4424"
           width="377.49533"
           height="808.37384"
           x="1203.0281"
           y="51.476627" /></flowRegion><flowPara
         id="flowPara4426"
         style="font-size:24px;fill:#ffffff">Colours:</flowPara><flowPara
         style="font-size:24px;fill:#ffffff"
         id="flowPara4428">    Bead:</flowPara><flowPara
         style="font-size:24px;fill:#ffffff"
         id="flowPara4430">        Inner: #D40000</flowPara><flowPara
         style="font-size:24px;fill:#ffffff"
         id="flowPara4432">        Middle: #deae1f</flowPara><flowPara
         style="font-size:24px;fill:#ffffff"
         id="flowPara4434">        Outer: #CD7B1F</flowPara><flowPara
         style="font-size:24px;fill:#ffffff"
         id="flowPara4436" /><flowPara
         style="font-size:24px;fill:#ffffff"
         id="flowPara4438">Link Colours:</flowPara><flowPara
         style="font-size:24px;fill:#ffffff"
         id="flowPara4440">   Highlight: #de1f4f</flowPara><flowPara
         style="font-size:24px;fill:#ffffff"
         id="flowPara4442">   Normal: #de641f</flowPara><flowPara
         style="font-size:24px;fill:#ffffff"
         id="flowPara4446" /><flowPara
         style="font-size:24px;fill:#ffffff"
         id="flowPara4448">Background &amp; Motif:</flowPara><flowPara
         style="font-size:24px;fill:#ffffff"
         id="flowPara4450">   Background: #000000</flowPara><flowPara
         style="font-size:24px;fill:#ffffff"
         id="flowPara4452">   Shading:</flowPara><flowPara
         style="fill:#ffffff"
         id="flowPara4444" /></flowRoot>    <g
       id="g4508">
      <rect
         ry="15.46875"
         rx="15.46875"
         y="396.5625"
         x="1195"
         height="226.875"
         width="660"
         id="rect4454-6"
         style="opacity:0.81818183;color:#000000;fill:#e0edfa;fill-opacity:1;fill-rule:evenodd;stroke:none;stroke-width:0.75;marker:none;visibility:visible;display:inline;overflow:visible;filter:url(#filter4504);enable-background:accumulate" />
      <rect
         ry="15"
         rx="15"
         y="400"
         x="1205"
         height="220"
         width="640"
         id="rect4454"
         style="opacity:0.81818183;color:#000000;fill:url(#linearGradient4614);fill-opacity:1;fill-rule:evenodd;stroke:none;stroke-width:0.75;marker:none;visibility:visible;display:inline;overflow:visible;enable-background:accumulate" />
    </g>
    <flowRoot
       xml:space="preserve"
       id="flowRoot4456"
       style="font-size:36px;font-style:normal;font-variant:normal;font-weight:normal;font-stretch:normal;line-height:125%;letter-spacing:0px;word-spacing:0px;fill:#000000;fill-opacity:1;stroke:none;font-family:Josefin Slab;-inkscape-font-specification:Josefin Slab"
       transform="translate(-40.9375,-36.0625)"><flowRegion
         id="flowRegion4458"><rect
           id="rect4460"
           width="379.99353"
           height="193.74475"
           x="1265.944"
           y="442.31775" /></flowRegion><flowPara
         id="flowPara4462"
         style="font-style:normal;font-variant:normal;font-weight:normal;font-stretch:normal;fill:#efefef;fill-opacity:1;font-family:Josefin Sans;-inkscape-font-specification:Josefin Sans">Page text: #efefef</flowPara><flowPara
         style="font-style:normal;font-variant:normal;font-weight:normal;font-stretch:normal;fill:#efefef;fill-opacity:1;font-family:Josefin Sans;-inkscape-font-specification:Josefin Sans"
         id="flowPara4464">    Josefin Sans</flowPara><flowPara
         style="font-style:normal;font-variant:normal;font-weight:normal;font-stretch:normal;fill:#de641f;fill-opacity:1;font-family:Josefin Sans;-inkscape-font-specification:Josefin Sans"
         id="flowPara4466">Link text: #de641f</flowPara><flowPara
         style="font-style:normal;font-variant:normal;font-weight:normal;font-stretch:normal;fill:#101010;fill-opacity:1;font-family:Josefin Sans;-inkscape-font-specification:Josefin Sans"
         id="flowPara4630">Dark Text: #101010</flowPara></flowRoot>    <g
       id="g4638"
       transform="translate(-15.1562,345.375)">
      <g
         id="g4632">
        <rect
           style="opacity:0.81818183;color:#000000;fill:#e0edfa;fill-opacity:1;fill-rule:evenodd;stroke:none;stroke-width:0.75;marker:none;visibility:visible;display:inline;overflow:visible;filter:url(#filter4504-3);enable-background:accumulate"
           id="rect4454-6-6"
           width="660"
           height="226.875"
           x="1195"
           y="396.5625"
           rx="15.46875"
           ry="15.46875"
           transform="matrix(0.30765072,0,0,0.54016737,1267.3574,-146.7606)" />
        <rect
           style="opacity:0.81818183;color:#000000;fill:url(#linearGradient4649);fill-opacity:1;fill-rule:evenodd;stroke:none;stroke-width:0.75;marker:none;visibility:visible;display:inline;overflow:visible;enable-background:accumulate"
           id="rect4454-4"
           width="196.89645"
           height="118.83682"
           x="1638.0765"
           y="69.306351"
           rx="4.6147609"
           ry="8.1025105" />
        <path
           sodipodi:type="inkscape:offset"
           inkscape:radius="4.5"
           inkscape:original="M 1643.25 69.4375 C 1640.48 69.4375 1638.25 71.6675 1638.25 74.4375 L 1638.25 85.125 C 1638.25 87.895 1640.48 90.125 1643.25 90.125 L 1830.1562 90.125 C 1832.9263 90.125 1835.1562 87.895 1835.1562 85.125 L 1835.1562 74.4375 C 1835.1562 71.6675 1832.9262 69.4375 1830.1562 69.4375 L 1643.25 69.4375 z "
           xlink:href="#rect4454-4-2"
           style="color:#000000;fill:#2d1b06;fill-opacity:1;fill-rule:evenodd;stroke:none;stroke-width:0.75;marker:none;visibility:visible;display:inline;overflow:visible;filter:url(#filter4596);enable-background:accumulate"
           id="path4594"
           inkscape:href="#rect4454-4-2"
           d="m 1643.25,64.9375 c -5.1852,0 -9.5,4.314838 -9.5,9.5 l 0,10.6875 c 0,5.185162 4.3148,9.5 9.5,9.5 l 186.9062,0 c 5.1852,0 9.5,-4.314946 9.5,-9.5 l 0,-10.6875 c 0,-5.185162 -4.3148,-9.5 -9.5,-9.5 l -186.9062,0 z" />
        <rect
           style="color:#000000;fill:#9f5f17;fill-opacity:1;fill-rule:evenodd;stroke:none;stroke-width:0.75;marker:none;visibility:visible;display:inline;overflow:visible;enable-background:accumulate"
           id="rect4454-4-2"
           width="196.89645"
           height="20.693649"
           x="1638.25"
           y="69.431351"
           rx="5"
           ry="5" />
      </g>
      <flowRoot
         transform="translate(9,4.125)"
         style="font-size:18px;font-style:normal;font-variant:normal;font-weight:normal;font-stretch:normal;line-height:125%;letter-spacing:0px;word-spacing:0px;fill:#000000;fill-opacity:1;stroke:none;font-family:Josefin Slab;-inkscape-font-specification:Josefin Slab"
         id="flowRoot4600"
         xml:space="preserve"><flowRegion
           id="flowRegion4602"><rect
             style="font-size:18px"
             y="64"
             x="1636"
             height="37"
             width="214"
             id="rect4604" /></flowRegion><flowPara
           style="font-weight:bold;-inkscape-font-specification:Josefin Slab Bold"
           id="flowPara4606">Header Text</flowPara></flowRoot>    </g>
  </g>
  <g
     inkscape:groupmode="layer"
     id="layer8"
     inkscape:label="concepts">
    <flowRoot
       xml:space="preserve"
       id="flowRoot4722"
       style="font-size:36px;font-style:normal;font-variant:normal;font-weight:normal;font-stretch:normal;line-height:125%;letter-spacing:0px;word-spacing:0px;fill:#000000;fill-opacity:1;stroke:none;font-family:Josefin Slab;-inkscape-font-specification:Josefin Slab"
       transform="translate(14.28125,-4.09375)"><flowRegion
         id="flowRegion4724"><rect
           id="rect4726"
           width="879.28931"
           height="185.90073"
           x="70.710678"
           y="194.09927" /></flowRegion><flowPara
         id="flowPara4728"
         style="font-size:32px;fill:#f9f9f9">Web-Design   Ecommerce   Marketing   Business-Automation</flowPara></flowRoot>  </g>
</svg>
