<?xml version="1.0" encoding="UTF-8" standalone="no"?>
<!-- Created with Inkscape (http://www.inkscape.org/) -->

<svg
   xmlns:dc="http://purl.org/dc/elements/1.1/"
   xmlns:cc="http://creativecommons.org/ns#"
   xmlns:rdf="http://www.w3.org/1999/02/22-rdf-syntax-ns#"
   xmlns:svg="http://www.w3.org/2000/svg"
   xmlns="http://www.w3.org/2000/svg"
   xmlns:xlink="http://www.w3.org/1999/xlink"
   xmlns:sodipodi="http://sodipodi.sourceforge.net/DTD/sodipodi-0.dtd"
   xmlns:inkscape="http://www.inkscape.org/namespaces/inkscape"
   width="512"
   height="512"
   id="svg2"
   version="1.1"
   inkscape:version="0.48.2 r9819"
   sodipodi:docname="thewhitewarrior.svg"
   inkscape:export-filename="/home/faris/workspace/projects/luckybead/web/new/static/img/thewhitewarrior.png"
   inkscape:export-xdpi="90"
   inkscape:export-ydpi="90">
  <defs
     id="defs4" />
  <sodipodi:namedview
     id="base"
     pagecolor="#ffffff"
     bordercolor="#666666"
     borderopacity="1.0"
     inkscape:pageopacity="0.0"
     inkscape:pageshadow="2"
     inkscape:zoom="0.98994949"
     inkscape:cx="163.27392"
     inkscape:cy="248.92663"
     inkscape:document-units="px"
     inkscape:current-layer="layer2"
     showgrid="false"
     inkscape:window-width="1465"
     inkscape:window-height="750"
     inkscape:window-x="28"
     inkscape:window-y="81"
     inkscape:window-maximized="0" />
  <metadata
     id="metadata7">
    <rdf:RDF>
      <cc:Work
         rdf:about="">
        <dc:format>image/svg+xml</dc:format>
        <dc:type
           rdf:resource="http://purl.org/dc/dcmitype/StillImage" />
        <dc:title></dc:title>
      </cc:Work>
    </rdf:RDF>
  </metadata>
  <g
     inkscape:label="Layer 1"
     inkscape:groupmode="layer"
     id="layer1"
     transform="translate(0,-540.36218)"
     style="display:none"
     sodipodi:insensitive="true">
    <image
       y="554.79077"
       x="-507.57144"
       id="image3047"
       xlink:href="file:///home/faris/Desktop/%20/samurai-silhouette-shadow_design.png"
       height="496.57144"
       width="496.57144"
       transform="scale(-1,1)" />
  </g>
  <g
     inkscape:groupmode="layer"
     id="layer2"
     inkscape:label="shadow">
    <path
       style="fill:#ffffff;fill-opacity:1;stroke:none"
       d="m 107.05586,85.175377 c 13.38575,1.011708 18.96811,6.723716 19.97826,14.804936 1.01015,8.081227 3.27556,22.100807 3.27556,22.100807 0,0 4.43806,-3.72694 5.05076,-2.02031 1.52597,4.25046 -9.09137,24.24366 -9.09137,24.24366 0,0 -6.06092,3.03046 -4.04061,9.09138 2.0203,6.06091 8.08122,12.12183 18.18274,12.12183 10.10153,0 45.45687,2.0203 45.45687,2.0203 0,0 9.09137,6.06092 19.1929,6.06092 10.10152,0 44.44671,-4.04061 44.44671,-4.04061 l 1.01015,7.07106 29.29443,-4.04061 7.07106,-11.11167 14.90239,2.30864 2.5,-8.21428 3.57143,8.21428 5.35715,1.42858 L 491.42857,99.142856 312.5,169.5 l -2.5,3.92857 -0.35714,5 -6.07143,-1.07143 c 0,0 -0.35714,5.71429 -2.5,6.78572 -2.14286,1.07143 -11.07143,5.71428 -15.35714,5.35714 -4.28572,-0.35714 -6.07143,-3.92857 -11.78572,-2.5 -5.71428,1.42857 -25.35714,7.14286 -25.35714,7.14286 l -4.64286,24.28571 c 0,0 -54.28571,7.5 -62.14286,12.85714 -7.85714,5.35715 -20,8.57143 -20.35714,14.28572 -0.35714,5.71428 0,17.85714 0,17.85714 0,0 -9.28571,7.5 -10.71428,11.07143 C 149.28571,278.07143 195,268.78571 195,268.78571 l 0,6.07143 -46.78571,8.21429 -0.73202,7.20009 c 0,0 6.56599,1.51522 9.59645,5.05076 3.03046,3.53553 2.02031,18.68782 2.02031,18.68782 l 5.05076,6.56599 0,38.3858 c 0,0 -0.50508,36.36549 3.03046,46.97209 3.53553,10.6066 52.02285,50.00255 55.55839,53.53809 3.53553,3.53553 -39.90103,28.78935 -47.47717,26.26396 -7.57615,-2.52538 -16.66752,-12.6269 -16.66752,-12.6269 0,0 -2.52538,-1.51523 -2.02031,3.03045 0.50508,4.54569 10.60661,17.67767 10.60661,17.67767 0,0 4.54568,7.57615 -1.01016,10.10153 -5.55584,2.52538 -23.2335,2.0203 -23.2335,2.0203 l -6.566,-6.06091 3.03046,-25.25381 c 0,0 -21.2132,4.04061 -21.2132,7.57614 0,3.53553 6.06091,-52.02286 6.06091,-52.02286 0,0 -16.16244,10.10153 -16.66751,17.67767 -0.50508,7.57615 -8.586301,15.65737 -15.657368,10.10153 -7.071068,-5.55584 -6.565992,-6.56599 -16.162441,-9.59645 -9.596449,-3.03046 -18.182746,-4.54569 -17.172593,-12.12183 1.010152,-7.57615 -1.515229,-13.63706 4.545686,-13.63706 6.060915,0 4.04061,1.01015 6.565992,-1.51523 2.525381,-2.52538 -2.020305,-16.16244 -2.020305,-16.16244 l 0.505076,-32.32488 -8.081221,-19.69798 0.505077,30.80966 -7.071068,-9.09138 -1.515229,-12.6269 -0.505076,-41.41626 -11.616754,-3.03046 c 0,0 -2.020306,-24.74873 0.505076,-32.82995 2.525381,-8.08122 -14.142136,-6.56599 -14.142136,-6.56599 l -2.525381,-9.09138 c 0,0 -0.505076,-12.12183 5.555839,-13.13198 6.060915,-1.01015 15.657364,-65.65992 18.182746,-70.71068 2.525381,-5.05076 15.657364,-18.68782 15.657364,-18.68782 l 21.213204,-6.06092 4.545686,-6.06091 c 0,0 -5.555839,-8.08122 -6.565992,-11.11168 -1.010152,-3.03046 -1.515228,-15.65736 -1.515228,-15.65736 0,0 -2.920532,-4.79101 -2.020305,-7.07107 0.72103,-1.8262 5.050762,-3.03046 5.050762,-3.03046 0,0 -0.382524,-12.55512 1.637781,-16.59573 2.020305,-4.040607 8.189667,-16.776032 21.575418,-15.764323 z"
       id="path3051"
       inkscape:connector-curvature="0"
       sodipodi:nodetypes="zscscsscscccccccccccccsssccsscsccccscccssscscscccscssssssccccccccsccsscccscscsz" />
  </g>
  <g
     inkscape:groupmode="layer"
     id="layer3"
     inkscape:label="headband"
     sodipodi:insensitive="true">
    <path
       style="fill:#d4000f;fill-opacity:0.94117647;stroke:none"
       d="m 247.0322,22.161326 c 0,0 -10.89931,7.876357 -16.68845,11.276174 -11.6132,6.820139 -28.42752,7.124256 -36.0625,18.21875 -3.11663,4.528822 -1.6875,16.40625 -1.6875,16.40625 0,0 -8.45592,8.832858 -14.03125,10.71875 -8.4564,2.860436 -18.5523,-3.460811 -26.78125,0 -8.78635,3.695232 -20,20.4375 -20,20.4375 l 0,-0.0625 -3.5625,3.5625 -44.65625,5 0,6.4375 45,-6.8125 c 0,0 6.69535,2.3325 10.18079,2.39102 11.35591,0.19067 20.72159,-0.72198 33.41286,-6.67227 8.3654,-4.194974 16.5751,-10.350307 21.0626,-18.5625 1.35424,-2.478275 1.28125,-8.375 1.28125,-8.375 0,0 7.31083,-6.062366 11.5625,-8.0625 8.65399,-4.071136 27.64784,-7.667356 27.64784,-7.667356 0,0 -4.26864,-5.056562 -7.46113,-6.123885 -3.78502,-1.265417 -6.33365,5.25126 -10.18671,6.291241 -4.25546,1.148591 -7.01416,0.850366 -10.44083,1.676555 -3.22489,0.777539 -9.46542,3.073445 -9.46542,3.073445 0,0 -0.70711,-9.777914 2.0625,-13.3125 C 206.41234,41.543331 222.21208,40.254282 235,36.65625 c 3.65733,-1.029031 8.7058,1.067953 11.26428,-1.740801 2.86807,-3.148629 0.76792,-12.754123 0.76792,-12.754123 z M 191.5625,78.1875 c 0,0 0.26978,3.434222 -0.5,4.875 -4.22542,7.908618 -12.38829,13.839045 -20.71875,17.15625 -11.83269,4.7118 -38.125,2.53125 -38.125,2.53125 l 0,-0.0312 c 0,0 10.77952,-15.945589 19.21875,-19.2813 9.63488,-3.808306 21.12635,3.996306 31.0625,1.0625 3.53074,-1.042508 9.0625,-6.3125 9.0625,-6.3125 z"
       id="path3822"
       inkscape:connector-curvature="0"
       sodipodi:nodetypes="csscssccccccscscscssscsssccssccssc" />
  </g>
</svg>
