<?xml version="1.0" encoding="UTF-8" standalone="no"?>
<!-- Created with Inkscape (http://www.inkscape.org/) -->

<svg
   xmlns:dc="http://purl.org/dc/elements/1.1/"
   xmlns:cc="http://creativecommons.org/ns#"
   xmlns:rdf="http://www.w3.org/1999/02/22-rdf-syntax-ns#"
   xmlns:svg="http://www.w3.org/2000/svg"
   xmlns="http://www.w3.org/2000/svg"
   xmlns:sodipodi="http://sodipodi.sourceforge.net/DTD/sodipodi-0.dtd"
   xmlns:inkscape="http://www.inkscape.org/namespaces/inkscape"
   width="128"
   height="128"
   id="svg2"
   version="1.1"
   inkscape:version="0.48.2 r9819"
   sodipodi:docname="page.svg"
   inkscape:export-filename="/home/faris/workspace/projects/luckybead/web/new/static/img/pricing/page.png"
   inkscape:export-xdpi="147.0699"
   inkscape:export-ydpi="147.0699">
  <defs
     id="defs4" />
  <sodipodi:namedview
     id="base"
     pagecolor="#ffffff"
     bordercolor="#666666"
     borderopacity="1.0"
     inkscape:pageopacity="0.0"
     inkscape:pageshadow="2"
     inkscape:zoom="2.7031974"
     inkscape:cx="51.149008"
     inkscape:cy="69.79282"
     inkscape:document-units="px"
     inkscape:current-layer="layer1"
     showgrid="false"
     inkscape:window-width="1116"
     inkscape:window-height="692"
     inkscape:window-x="332"
     inkscape:window-y="80"
     inkscape:window-maximized="0" />
  <metadata
     id="metadata7">
    <rdf:RDF>
      <cc:Work
         rdf:about="">
        <dc:format>image/svg+xml</dc:format>
        <dc:type
           rdf:resource="http://purl.org/dc/dcmitype/StillImage" />
        <dc:title></dc:title>
      </cc:Work>
    </rdf:RDF>
  </metadata>
  <g
     inkscape:label="Layer 1"
     inkscape:groupmode="layer"
     id="layer1"
     transform="translate(0,-924.36218)">
    <path
       style="opacity:0.65;fill:#000000;fill-opacity:1;stroke:#ffffff;stroke-width:1px;stroke-linecap:butt;stroke-linejoin:miter;stroke-opacity:1"
       d="m 64.090255,969.48909 -24.34375,14.65625 0,-13.625 -10.71875,0 0,20.09375 -23.5312494,14.18751 15.4374994,0 0,47.0312 87.875005,0 0,-47.0312 15.4375,0 z"
       id="path2985"
       inkscape:connector-curvature="0"
       sodipodi:nodetypes="cccccccccccc" />
    <path
       style="fill:none;stroke:#ffffff;stroke-width:1px;stroke-linecap:butt;stroke-linejoin:miter;stroke-opacity:1;opacity:0.85"
       d="m 35.152589,967.14263 c -0.930959,-3.68257 5.027797,-27.66318 1.380742,-20.30446 -3.647054,7.35872 -5.825681,-4.0893 -4.393952,-8.29849 0.659046,-4.82698 9.281133,-4.03364 6.858457,0.94094 -4.616075,3.31143 -8.111227,-4.18077 -4.507393,-7.293 1.127264,-3.31021 6.673218,-0.0557 2.475294,0.6624 -4.944603,-0.7773 -5.205876,-4.26795 -2.43699,-6.13929"
       id="path4462"
       inkscape:connector-curvature="0"
       sodipodi:nodetypes="czccccc" />
    <path
       style="opacity:0.65;fill:#000000;fill-opacity:1;stroke:#ffffff;stroke-width:1px;stroke-linecap:butt;stroke-linejoin:miter;stroke-opacity:1"
       d="m 52.054008,1051.3159 0,-23.0192 25.635,0 0,23.5423"
       id="path4543"
       inkscape:connector-curvature="0" />
    <path
       style="opacity:0.65;fill:#000000;fill-opacity:1;stroke:#ffffff;stroke-width:1px;stroke-linecap:butt;stroke-linejoin:miter;stroke-opacity:1"
       d="m 64.871508,1028.6891 0,23.2807"
       id="path4545"
       inkscape:connector-curvature="0" />
    <path
       style="font-size:medium;font-style:normal;font-variant:normal;font-weight:normal;font-stretch:normal;text-indent:0;text-align:start;text-decoration:none;line-height:normal;letter-spacing:normal;word-spacing:normal;text-transform:none;direction:ltr;block-progression:tb;writing-mode:lr-tb;text-anchor:start;baseline-shift:baseline;opacity:0.65;color:#000000;fill:#000000;fill-opacity:1;stroke:#ffffff;stroke-width:1;stroke-opacity:1;marker:none;visibility:visible;display:inline;overflow:visible;enable-background:accumulate;font-family:Sans;-inkscape-font-specification:Sans"
       d="m 64.458746,983.97953 c -6.239793,0.2051 -11.285736,5.28123 -11.398365,11.59359 0.0035,0.0155 0.0085,0.0306 0.01497,0.0451 -0.0065,0.0145 -0.01149,0.0296 -0.01497,0.0451 -0.07005,6.48428 5.109946,11.80828 11.593594,11.92398 6.501133,0.116 11.874143,-5.0534 12.014088,-11.54855 l 0.01497,0 0,-0.48056 -0.03004,0 c -0.119585,-6.31602 -5.210243,-11.46494 -11.578577,-11.57857 -0.203626,-0.004 -0.414438,-0.007 -0.615722,0 z m 0.03004,0.48057 c 0.08919,-0.004 0.180628,8.3e-4 0.270316,0 l 0,11.098 -11.218153,0 c 0.123611,-6.04684 4.96672,-10.9016 10.947837,-11.098 z m 0.735862,0.0142 c 6.038514,0.18855 10.82923,5.07484 10.947838,11.08299 l -10.947838,0 z m -11.683699,11.56355 11.218153,0 0,11.06795 c -0.03082,-3e-4 -0.05924,6e-4 -0.0901,0 -6.100466,-0.1088 -10.997677,-5.0123 -11.128053,-11.06795 z m 11.683699,0 10.962856,0 c -0.131308,6.04495 -4.980503,10.88035 -10.962856,11.06795 z"
       id="path4645"
       inkscape:connector-curvature="0"
       sodipodi:nodetypes="ccccsccccccccccccccccccccccccc" />
  </g>
</svg>
