<?xml version="1.0" encoding="UTF-8" standalone="no"?>
<!-- Created with Inkscape (http://www.inkscape.org/) -->

<svg
   xmlns:dc="http://purl.org/dc/elements/1.1/"
   xmlns:cc="http://creativecommons.org/ns#"
   xmlns:rdf="http://www.w3.org/1999/02/22-rdf-syntax-ns#"
   xmlns:svg="http://www.w3.org/2000/svg"
   xmlns="http://www.w3.org/2000/svg"
   xmlns:sodipodi="http://sodipodi.sourceforge.net/DTD/sodipodi-0.dtd"
   xmlns:inkscape="http://www.inkscape.org/namespaces/inkscape"
   width="128"
   height="128"
   id="svg2"
   version="1.1"
   inkscape:version="0.48.2 r9819"
   sodipodi:docname="site.svg"
   inkscape:export-filename="/home/faris/workspace/projects/luckybead/web/new/static/img/pricing/site.png"
   inkscape:export-xdpi="180"
   inkscape:export-ydpi="180">
  <defs
     id="defs4" />
  <sodipodi:namedview
     id="base"
     pagecolor="#ffffff"
     bordercolor="#666666"
     borderopacity="1.0"
     inkscape:pageopacity="0.0"
     inkscape:pageshadow="2"
     inkscape:zoom="3.8228984"
     inkscape:cx="50.40534"
     inkscape:cy="62.864572"
     inkscape:document-units="px"
     inkscape:current-layer="layer1"
     showgrid="false"
     inkscape:window-width="1116"
     inkscape:window-height="692"
     inkscape:window-x="381"
     inkscape:window-y="141"
     inkscape:window-maximized="0"
     showguides="true"
     inkscape:guide-bbox="true" />
  <metadata
     id="metadata7">
    <rdf:RDF>
      <cc:Work
         rdf:about="">
        <dc:format>image/svg+xml</dc:format>
        <dc:type
           rdf:resource="http://purl.org/dc/dcmitype/StillImage" />
        <dc:title></dc:title>
      </cc:Work>
    </rdf:RDF>
  </metadata>
  <g
     inkscape:label="Layer 1"
     inkscape:groupmode="layer"
     id="layer1"
     transform="translate(0,-924.36218)"
     style="display:inline" />
  <g
     inkscape:groupmode="layer"
     id="layer2"
     inkscape:label="drawing">
    <path
       style="font-size:medium;font-style:normal;font-variant:normal;font-weight:normal;font-stretch:normal;text-indent:0;text-align:start;text-decoration:none;line-height:normal;letter-spacing:normal;word-spacing:normal;text-transform:none;direction:ltr;block-progression:tb;writing-mode:lr-tb;text-anchor:start;baseline-shift:baseline;color:#000000;fill:#000000;fill-opacity:1;stroke:#ffffff;stroke-width:0.75000000000000000;marker:none;visibility:visible;display:inline;overflow:visible;enable-background:accumulate;font-family:Sans;-inkscape-font-specification:Sans;stroke-opacity:1;stroke-miterlimit:4;stroke-dasharray:none;opacity:0.65"
       d="m 61.21875,2.6875 0,0.03125 -1.5625,35.15625 0,0.09375 -2.875,-0.9375 -0.1875,-0.09375 -0.1875,0.125 -2.46875,1.28125 -0.90625,-0.40625 -0.1875,-0.0625 -0.1875,0.0625 -5.78125,2.5 -0.6875,0.28125 L 40.53125,42.1875 40.34375,42.125 40.25,42.25 38.78125,42.625 39.75,43 l -1.0625,1.6875 -0.0625,0.09375 -3.34375,0.75 -0.46875,-0.1875 0,0.3125 -1.34375,0.3125 1.34375,0.625 1.03125,64.71875 0,0.28125 0.25,0.15625 26.1875,15.125 0.71875,0.40625 0.03125,-0.84375 0.0625,-18.71875 0.03125,-0.0625 -0.03125,0 0.1875,-48.5625 0.09375,0.03125 0.25,0.125 0.21875,-0.15625 0.78125,-0.5 -0.5,65.46875 -0.03125,0.96875 0.78125,-0.53125 11.65625,-7.875 0.34375,-0.0312 0,-0.1875 7.375,-5 0.21875,-0.15625 0,-0.25 0.03125,-9.3125 0.125,-0.0625 -0.09375,-0.1875 0,-2.90625 0.09375,-0.0625 -0.09375,-0.15625 0.1875,-52.96875 0,-0.09375 0.0625,-0.03125 0.65625,-0.4375 -0.6875,-0.40625 -3.15625,-1.8125 -0.1875,-0.125 -0.34375,-1.40625 0,-0.03125 0.09375,-0.0625 -0.125,-0.0625 -0.125,-0.46875 -0.4375,0.25 -0.25,-0.09375 L 76.03125,38.875 75.8125,38.78125 75.625,38.875 75.21875,39.09375 73.1875,37.5625 73.25,37.53125 l -0.21875,-0.0625 -0.15625,-0.125 -0.21875,-0.15625 -0.1875,0.09375 -0.375,-0.125 -3.9375,-1.3125 -0.21875,-0.09375 -0.21875,0.15625 -2.4375,1.75 -0.4375,-0.21875 -0.8125,-0.40625 -1.8125,-34.3125 0,-0.03125 -0.5,0 -0.5,0 z M 61.75,12.96875 63.0625,37.375 l 0.03125,0.3125 0.25,0.125 0.28125,0.15625 -1.03125,0.75 -1.9375,-1.125 1.09375,-24.625 z M 68.09375,36.875 70.625,37.71875 62.03125,41.90625 57.46875,39.875 55.25,38.78125 l 1.4375,-0.75 6.46875,2.15625 0.21875,0.09375 0.21875,-0.15625 4.5,-3.25 z m 4.4375,1.46875 1.75,1.3125 L 73.5,40.0625 61.96875,46.34375 48.375,40.875 l 4.4375,-1.90625 4.4375,1.9375 4.25,2.125 0.21875,0.125 0.21875,-0.125 L 62.03125,43 l 0.15625,0.0625 0.21875,0.09375 0.1875,-0.125 9.9375,-4.6875 z m 3.375,1.5625 3,1.21875 -7.25,4.3125 -8.9375,4.875 -20.53125,-7.53125 4.84375,-1.21875 14.78125,6.0625 0.21875,0.09375 0.21875,-0.125 11.71875,-6.625 1.46875,-0.8125 0.46875,-0.25 z m 4.34375,2 0.21875,1 L 69.75,49.1875 62.90625,53.125 39.875,44.6875 l 0.84375,-1.3125 21.75,8.4375 0.21875,0.09375 0.21875,-0.125 9,-5.34375 8.34375,-4.53125 z m 1.1875,1.71875 2.125,1.21875 -20.0625,13.25 -20.46875,-9 -6.21875,-2.84375 2.625,-0.65625 22.625,8.96875 0.25,0.09375 0.1875,-0.125 0.53125,-0.3125 0.0625,0.03125 0.1875,-0.09375 6.75,-3.96875 11.3125,-6.5 0.09375,-0.0625 z m 2.28125,2.65625 0,2.6875 -7.5625,5.125 L 76,51.4375 83.71875,46.28125 z m -47.90625,0.75 4.9375,2.15625 6.1875,2.8125 -0.625,-0.03125 -0.1875,2.9375 -10.25,-4.6875 -0.0625,-3.1875 z m 47.90625,3.15625 0,2.3125 -8.25,5.25 -0.28125,0.15625 0.03125,0.3125 0.40625,4.15625 0.09375,0.875 0.6875,-0.5 7.28125,-5.3125 -0.03125,3.9375 -0.5,-0.75 -7.84375,5.5 -0.21875,0.15625 0,0.28125 L 75.375,71 l 0.03125,0.875 0.75,-0.5 7.5,-5.15625 0,1.84375 -7.6875,5.25 -0.21875,0.15625 0,0.28125 0.125,4.1875 0.03125,0.9375 0.78125,-0.5625 6.9375,-5.1875 0,1.71875 -0.0625,-0.09375 -8.5,5.625 -0.28125,0.1875 0.0625,0.34375 0.90625,3.90625 0.1875,0.75 0.59375,-0.4375 7.0625,-5.15625 0,2.59375 -0.15625,-0.25 L 76,86.75 l -0.21875,0.15625 -0.03125,0.25 -0.375,4.4375 -0.09375,1 0.84375,-0.53125 7.4375,-4.625 0,1.15625 -0.28125,-0.375 -7.59375,5.375 L 75.5,93.75 l 0,0.25 0,3.65625 0,0.9375 0.78125,-0.53125 7.25,-4.84375 0,1.3125 -7.5625,4.78125 -0.1875,0.15625 -0.03125,0.21875 -0.375,3.9375 -0.125,1.03125 0.875,-0.5625 7.375,-4.875 0,1.90625 -7.75,4.46875 -0.25,0.125 0,0.28125 -0.15625,3.53125 -0.03125,0.90625 0.78125,-0.4375 7.375,-4.21875 0,1.96875 -7.59375,4.65625 -0.28125,0.15625 0.03125,0.3125 0.1875,3.03125 -1.875,1.28125 -0.1875,-2.5625 -0.0625,-0.875 -0.71875,0.5 -7.8125,5.5 0,-2.25 8.1875,-4.625 0.3125,-0.15625 -0.0625,-0.34375 -0.5,-4.3125 -0.125,-0.84375 -0.6875,0.5 -7.0625,5.25 0,-1.84375 8.03125,-5.0625 0.25,-0.15625 -0.03125,-0.3125 -0.375,-3.6875 L 73,101 72.28125,101.59375 65.25,107.25 l 0,-1.71875 7.75,-5.09375 0.1875,-0.125 0.03125,-0.21875 0.65625,-4.1875 0.1875,-1.1875 -0.96875,0.6875 L 65.28125,101 65.3125,98.84375 65.6875,99.375 73.15625,94 l 0.1875,-0.15625 0,-0.25 0,-3.78125 0,-0.90625 -0.75,0.46875 -7.25,4.46875 0.0625,-8.59375 7.8125,-4.5625 0.25,-0.125 0,-0.25 L 73.875,75.71875 73.96875,74.625 73.0625,75.28125 65.4375,80.875 65.46875,78.4375 73.25,73.21875 73.5,73.0625 73.46875,72.75 73.09375,68.1875 73,67.3125 l -0.71875,0.5 -6.78125,4.96875 0.03125,-3.15625 0.40625,0.59375 7.71875,-5.375 0.21875,-0.15625 0,-0.28125 -0.25,-4.3125 -0.0625,-0.84375 -0.71875,0.4375 -7.25,4.6875 0.03125,-5.96875 6.90625,-4.625 0.1875,2.65625 -7.0625,4.4375 0.53125,0.84375 7.3125,-4.5625 0.25,-0.1875 0,-0.28125 -0.28125,-3.53125 1.59375,-1.0625 0.15625,2.96875 0.0625,0.875 0.71875,-0.5 7.71875,-5.25 z M 35.875,51.3125 46.34375,56.125 47,56.4375 l 0.0625,-0.71875 0.25,-3.53125 3.21875,1.46875 0.25,4 0,0.3125 0.28125,0.125 10.875,4.71875 0.34375,-0.84375 -0.03125,4.25 -11.28125,-5.75 -0.8125,-0.4375 0.09375,0.9375 0.53125,4.4375 0.03125,0.28125 0.25,0.125 11.1875,4.875 0,3.4375 L 51.21875,68.8125 50.5,68.46875 l 0,0.8125 0,4.4375 0,0.34375 0.3125,0.125 11.40625,4.8125 0,2.5625 -10.84375,-5.53125 -0.6875,-0.34375 -0.0625,0.75 -0.25,4.1875 -0.03125,0.34375 0.3125,0.125 11.53125,5.375 0,1.65625 -11.09375,-5.1875 -0.75,-0.34375 0.03125,0.84375 0.25,4.4375 0.03125,0.3125 0.28125,0.125 11.21875,4.96875 0,2.15625 -11.1875,-5.28125 -0.78125,-0.375 0.0625,0.84375 0.25,4.0625 0.03125,0.28125 0.28125,0.125 11.3125,5 0,1.34375 -10.78125,-4.625 -0.75,-0.3125 0.03125,0.78125 0.15625,3.40625 0,0.3125 0.28125,0.125 11.03125,5.3125 0,0.75 -11,-5.15625 -0.78125,-0.34375 0.0625,0.84375 0.25,4.1875 0.03125,0.28125 0.28125,0.125 11.125,5.0625 0,1.40625 -10.71875,-5.125 -0.6875,-0.34375 -0.03125,0.75 -0.125,4.1875 0,0.34375 0.3125,0.15625 11.25,4.6875 0,2.5 L 51.65625,115 51,114.65625 50.90625,115.375 50.5,118.90625 47.59375,117.25 l -0.28125,-3.9375 0,-0.28125 -0.28125,-0.125 -10.21875,-4.625 -0.03125,-1.78125 9.28125,4.8125 0.5625,0.28125 0.15625,-0.625 0.90625,-3.78125 0.125,-0.40625 -0.375,-0.15625 -10.75,-4.96875 -0.03125,-1.59375 9.6875,5.09375 0.71875,0.375 0,-0.8125 0,-4.1875 0,-0.34375 -0.3125,-0.125 -10.15625,-4.3125 -0.03125,-1.5 9.78125,4.78125 0.625,0.3125 L 47.0625,98.625 47.4375,95.09375 47.5,94.75 47.15625,94.59375 37.09375,90 l -0.40625,0.90625 9.75,4.4375 -0.28125,2.46875 -9.59375,-4.65625 -0.09375,-5.3125 10.125,5.65625 0.78125,0.46875 -0.0625,-0.90625 -0.25,-4.84375 -0.03125,-0.3125 -0.28125,-0.125 -10.375,-4.15625 -0.03125,-2.71875 10,5.15625 0.6875,0.375 0.03125,-0.8125 0.125,-4.4375 0,-0.34375 -0.28125,-0.125 -10.21875,-4.4375 -0.375,0.875 -0.0625,-3.03125 10.625,4.75 0.71875,0.3125 0,-0.75 0,-3.9375 0,-0.3125 -0.3125,-0.125 -11.09375,-5.125 -0.03125,0.03125 -0.03125,-2.625 10.21875,5.21875 0.75,0.375 L 47.0625,71.09375 46.9375,67.5625 46.90625,67.25 46.65625,67.125 36.3125,61.90625 36.0625,62.4375 36,59.09375 l 10.875,4.625 0.8125,0.34375 -0.09375,-0.875 L 47.0625,58.875 47.03125,58.59375 46.75,58.46875 35.90625,53.84375 35.875,51.3125 z m 47.84375,2.375 -0.03125,2.84375 -0.15625,-0.21875 -7,5.09375 -0.28125,-2.96875 7.46875,-4.75 z M 51.5625,54.125 62.28125,59 l 0,2.84375 L 51.75,57.3125 51.5625,54.125 z m -15.625,0.78125 10.15625,4.375 L 46.5,62.46875 36.15625,58.09375 36,58.5 35.9375,54.90625 z m 36.75,6.0625 0.15625,3.21875 -7.3125,5.0625 0.03125,-3.875 0.09375,0.125 7.03125,-4.53125 z m 10.96875,0.5 0,3.53125 -7.375,5.0625 -0.1875,-3.28125 7.5625,-5.3125 z m -32.28125,0.3125 10.875,5.5625 0,2.28125 -10.5,-4.59375 -0.375,-3.25 z m -15.3125,1.09375 9.875,5.03125 0.09375,2.375 L 36.09375,65.1875 36.0625,62.875 z M 72.15625,69.15625 72.4375,72.5625 65.46875,77.21875 65.5,73.90625 65.5625,74 72.15625,69.15625 z m 11.5,0.125 L 83.625,72.625 83.28125,72.15625 76.84375,76.9375 76.75,73.96875 l 6.90625,-4.6875 z m -47.46875,0.78125 10.40625,4.78125 0,2.8125 -10.375,-4.625 -0.03125,-2.96875 z m 15.3125,0 10.40625,5.03125 L 62.25,74.40625 62.21875,77.875 51.5,73.375 l 0,-3.3125 z M 83.625,75.90625 83.59375,79.375 83.28125,78.9375 76.5625,83.875 75.90625,81 83.625,75.90625 z M 72.78125,76.75 72.5,79.96875 l -7.0625,4.09375 0,-2.71875 0.375,0.5 6.96875,-5.09375 z m -36.46875,0.4375 9.875,4.3125 -0.09375,3.3125 -9.625,-5 -0.125,0.25 -0.03125,-2.875 z M 51.59375,77.25 62.21875,82.71875 62.1875,85.375 51.40625,80.34375 51.59375,77.25 z m 22.1875,4.5 -0.8125,0.59375 L 65.5,87.5625 66.0625,88.375 72.71875,83.71875 72.625,86.5 l -7.21875,4.4375 0.5,0.875 7.46875,-4.59375 0.21875,-0.125 0.03125,-0.28125 0.125,-4.0625 0.03125,-1 z m 9.8125,1.65625 -0.03125,2.84375 -7.125,4.4375 0.28125,-3.1875 6.875,-4.09375 z M 51.40625,84.1875 62.1875,89.21875 62.15625,92.1875 51.59375,87.5 51.40625,84.1875 z m -15,0.5 9.6875,3.90625 0.1875,3.625 -9.84375,-5.53125 -0.03125,-2 z M 83.5625,89.25 83.53125,92 76.5,96.71875 l 0,-2.46875 7.0625,-5 z m -11.21875,1.46875 0,2.625 -7.03125,5.0625 L 65.34375,95 l 7,-4.28125 z m -21.03125,0.6875 10.84375,5.125 L 62.125,99 51.46875,94.3125 51.3125,91.40625 z M 83.53125,95.71875 83.5,98 l -7.0625,4.6875 0.28125,-2.65625 6.8125,-4.3125 z m -46.9375,1.15625 9.46875,4 0,3.03125 -9.40625,-4.96875 -0.0625,-2.0625 z m 36.09375,0.03125 -0.4375,2.8125 -6.96875,4.625 0,-2.4375 0.15625,0.21875 7.25,-5.21875 z m -21.03125,1.125 10.46875,4.5 -0.03125,2.78125 -10.3125,-4.96875 -0.125,-2.3125 z m 31.84375,4.25 0,2.34375 -7.125,4.0625 0.125,-2.34375 7,-4.0625 z M 36.71875,102.75 46.625,107.34375 45.96875,110.125 36.75,105.34375 36.71875,102.75 z m 35.46875,0.1875 0.25,2.46875 -7.21875,4.53125 0,-1.40625 6.96875,-5.59375 z m -20.75,0.34375 10.65625,5 0,2.8125 -10.5,-4.75 -0.15625,-3.0625 z m 32.03125,5.625 0,1.84375 -6.6875,4.5 -0.125,-2.15625 6.8125,-4.1875 z m -11.28125,0.125 0.40625,3.125 -7.40625,4.1875 0,-2.34375 0.125,0.15625 6.875,-5.125 z m -35.375,0.375 9.53125,4.28125 0.1875,2.9375 -9.6875,-5.59375 -0.03125,-1.625 z m 14.78125,0.28125 10.46875,5.03125 0,2.46875 L 51.5,112.75 l 0.09375,-3.0625 z m 21.21875,5.875 0.15625,2.28125 -7.84375,5.28125 0.03125,-3 0.40625,0.5625 7.25,-5.125 z m -21,0.6875 10.25,5.625 -0.03125,3.6875 -10.59375,-6.125 0.375,-3.1875 z"
       id="path4044"
       inkscape:connector-curvature="0" />
  </g>
</svg>
