<?xml version="1.0" encoding="UTF-8" standalone="no"?>
<!-- Created with Inkscape (http://www.inkscape.org/) -->

<svg
   xmlns:dc="http://purl.org/dc/elements/1.1/"
   xmlns:cc="http://creativecommons.org/ns#"
   xmlns:rdf="http://www.w3.org/1999/02/22-rdf-syntax-ns#"
   xmlns:svg="http://www.w3.org/2000/svg"
   xmlns="http://www.w3.org/2000/svg"
   xmlns:xlink="http://www.w3.org/1999/xlink"
   xmlns:sodipodi="http://sodipodi.sourceforge.net/DTD/sodipodi-0.dtd"
   xmlns:inkscape="http://www.inkscape.org/namespaces/inkscape"
   version="1.1"
   width="2300"
   height="1421.5"
   id="svg2"
   inkscape:version="0.48.0 r9654"
   sodipodi:docname="draft.svg">
  <sodipodi:namedview
     pagecolor="#ffffff"
     bordercolor="#666666"
     borderopacity="1"
     objecttolerance="10"
     gridtolerance="10"
     guidetolerance="10"
     inkscape:pageopacity="0"
     inkscape:pageshadow="2"
     inkscape:window-width="1305"
     inkscape:window-height="671"
     id="namedview2989"
     showgrid="false"
     showguides="true"
     inkscape:guide-bbox="true"
     inkscape:zoom="0.29452535"
     inkscape:cx="968.55202"
     inkscape:cy="749.71219"
     inkscape:window-x="47"
     inkscape:window-y="297"
     inkscape:window-maximized="0"
     inkscape:current-layer="layer6">
    <sodipodi:guide
       orientation="1,0"
       position="878.5,0"
       id="guide2991" />
    <sodipodi:guide
       orientation="0,1"
       position="1282.046,1416.5"
       id="guide2992" />
    <sodipodi:guide
       orientation="0,1"
       position="0,873"
       id="guide3012" />
  </sodipodi:namedview>
  <defs
     id="defs4">
    <inkscape:perspective
       sodipodi:type="inkscape:persp3d"
       inkscape:vp_x="0 : 526.18109 : 1"
       inkscape:vp_y="0 : 1000 : 0"
       inkscape:vp_z="744.09448 : 526.18109 : 1"
       inkscape:persp3d-origin="372.04724 : 350.78739 : 1"
       id="perspective2481" />
    <inkscape:perspective
       id="perspective10"
       inkscape:persp3d-origin="372.04724 : 350.78739 : 1"
       inkscape:vp_z="744.09448 : 526.18109 : 1"
       inkscape:vp_y="0 : 1000 : 0"
       inkscape:vp_x="0 : 526.18109 : 1"
       sodipodi:type="inkscape:persp3d" />
  </defs>
  <metadata
     id="metadata7">
    <rdf:RDF>
      <cc:Work
         rdf:about="">
        <dc:format>image/svg+xml</dc:format>
        <dc:type
           rdf:resource="http://purl.org/dc/dcmitype/StillImage" />
        <dc:title />
      </cc:Work>
    </rdf:RDF>
  </metadata>
  <g
     transform="translate(0,369.13783)"
     id="layer1" />
  <g
     inkscape:groupmode="layer"
     id="layer6"
     inkscape:label="simpleLogo"
     style="display:inline">
    <path
       transform="translate(7.1205011e-7,1.9759741e-5)"
       sodipodi:type="inkscape:offset"
       inkscape:radius="180.96429"
       inkscape:original="M 641.6875 244.4375 C 524.91189 242.90412 403.31255 271.40647 353.875 350.8125 C 262.97634 497.19036 337.8144 752.801 559.84375 778.21875 C 469.59798 616.52636 516.73133 271.22508 900.53125 318.28125 C 870.4062 277.52988 758.46311 245.97088 641.6875 244.4375 z "
       xlink:href="#path2488-5-5"
       style="fill:#cd7b1f;fill-opacity:1;fill-rule:evenodd;stroke:#000000;display:inline;stroke-opacity:1;stroke-width:10;stroke-miterlimit:4;stroke-dasharray:none"
       id="path3384-4"
       inkscape:href="#path2488-5-5"
       d="m 843.9375,112.40625 c -142.71666,0.98728 -312.96554,26.8406 -415.65625,191.78125 a 180.98239,180.98239 0 0 0 -0.0937,0.1875 c -82.0952,132.20128 -83.96778,287.28724 -28.03125,423.34375 55.93653,136.05651 190.29118,259.0687 367.125,279.31245 a 180.98239,180.98239 0 0 0 178.625,-267.9687 C 934.03506,717.79301 925.34327,635.23036 943.5,597.53125 c 18.15673,-37.69911 25.08897,-67.5063 163.0312,-50.59375 A 180.98239,180.98239 0 0 0 1274.0938,259.75 c -65.4822,-88.58016 -128.1314,-99.69381 -192.9688,-118.125 -64.8374,-18.43119 -135.1047,-28.12302 -209.03125,-29.09375 -9.24146,-0.12135 -18.64181,-0.19082 -28.15625,-0.125 z" />
    <path
       sodipodi:type="inkscape:offset"
       inkscape:radius="88.910545"
       inkscape:original="M 641.6875 244.4375 C 524.91189 242.90412 403.31255 271.40647 353.875 350.8125 C 262.97634 497.19036 337.8144 752.801 559.84375 778.21875 C 469.59798 616.52636 516.73133 271.22508 900.53125 318.28125 C 870.4062 277.52988 758.46311 245.97088 641.6875 244.4375 z "
       xlink:href="#path2488-5-5"
       style="fill:#deb01f;fill-opacity:0.94117647000000004;fill-rule:evenodd;stroke:#000000;display:inline;stroke-opacity:1;stroke-width:10;stroke-miterlimit:4;stroke-dasharray:none"
       id="path3384"
       inkscape:href="#path2488-5-5"
       d="M 845.90625,204.5625 C 719.95389,206.14566 580.46739,233.93778 506.4375,352.84375 a 88.919436,88.919436 0 0 0 -0.0625,0.0937 c -63.45401,102.18261 -66.40024,229.50457 -21.0625,339.78125 45.33774,110.27668 149.08487,206.4641 292.4375,222.875 A 88.919436,88.919436 0 0 0 865.5,783.90625 C 836.71418,732.33101 826.98201,627.31747 860.5625,557.59375 894.14299,487.87003 952.36028,435.28473 1117.75,455.5625 a 88.919436,88.919436 0 0 0 82.3125,-141.09375 c -39.8345,-53.88559 -88.6927,-68.55488 -144.125,-84.3125 -55.4323,-15.75762 -119.04027,-24.72681 -185.0625,-25.59375 -8.2531,-0.10837 -16.57193,-0.10554 -24.96875,0 z" />
    <path
       sodipodi:nodetypes="cccc"
       id="path2488-5-5"
       d="M 353.86927,350.80063 C 452.74438,191.98856 840.2842,236.77673 900.5343,318.27948 516.73438,271.22331 469.59077,616.52907 559.83654,778.22146 337.80719,752.80371 262.97061,497.17849 353.86927,350.80063 z"
       style="fill:#d40000;fill-opacity:1;fill-rule:evenodd;stroke:#000000;display:inline;stroke-opacity:1;stroke-width:10;stroke-miterlimit:4;stroke-dasharray:none"
       inkscape:connector-curvature="0" />
  </g>
  <flowRoot
     xml:space="preserve"
     id="flowRoot2994"
     style="font-size:480px;font-style:normal;font-variant:normal;font-weight:bold;font-stretch:normal;line-height:125%;letter-spacing:0px;word-spacing:0px;fill:#000000;fill-opacity:1;stroke:none;font-family:Josefin Slab;-inkscape-font-specification:Josefin Slab Bold"
     transform="translate(-0.21875,581.00209)"><flowRegion
       id="flowRegion2996"><rect
         id="rect2998"
         width="2645.7202"
         height="1522.1294"
         x="878.70563"
         y="0.20563971"
         style="font-size:480px;font-style:normal;font-variant:normal;font-weight:bold;font-stretch:normal;font-family:Josefin Slab;-inkscape-font-specification:Josefin Slab Bold" /></flowRegion><flowPara
       id="flowPara3000"
       style="font-size:280px;font-style:normal;font-weight:normal;line-height:87.99999952%;-inkscape-font-specification:Josefin Slab">Lucky Bead</flowPara><flowPara
       id="flowPara3002"
       style="font-size:280px;line-height:87.99999952%">Consulting</flowPara></flowRoot>  <g
     inkscape:groupmode="layer"
     id="layer2"
     inkscape:label="Logo"
     sodipodi:insensitive="true"
     style="display:none">
    <g
       id="g3282"
       transform="matrix(5.2266132,0,0,5.2266132,214.13939,-55.464215)">
      <g
         style="display:none"
         id="layer1-8"
         inkscape:label="Layer 1">
        <image
           xlink:href="/home/faris/workspace/projects/luckybead/web/old/TheLuckyBead/bead_pics/Bead150.png"
           sodipodi:absref="/home/faris/workspace/projects/luckybead/web/old/TheLuckyBead/bead_pics/Bead150.png"
           width="126.2963"
           height="103.85185"
           id="image2483"
           x="0.66666186"
           y="11.568527" />
      </g>
      <g
         inkscape:label="Bead_Draw"
         id="layer2-3">
        <path
           sodipodi:nodetypes="csssssz"
           id="path2488"
           d="M 1.7777778,62.222222 C 4.745643,38.776086 4.0749295,40.082181 8,33.777778 26.917625,3.3925059 101.06504,11.961759 112.59259,27.555556 c 14.31582,19.365601 15.11111,31.703703 14.51852,37.925925 -0.59259,6.222223 -10.66667,35.851849 -34.666666,44.444449 -6.973914,2.49684 -30.836692,6.47202 -45.037037,5.62963 C 12.444444,113.48148 -1.1851852,85.62963 1.7777778,62.222222 z"
           style="fill:#d40000;fill-opacity:1;fill-rule:evenodd;stroke:#000000;stroke-width:1px;stroke-linecap:butt;stroke-linejoin:miter;stroke-opacity:1"
           inkscape:connector-curvature="0" />
      </g>
      <g
         inkscape:label="Bead_Hole"
         id="layer3">
        <path
           sodipodi:nodetypes="csssz"
           id="path2491"
           d="M 9.4814811,41.481482 C 16.148148,40.444444 24.888889,46.518519 26.962963,69.037037 29.037038,91.555556 25.185185,97.777778 22.814815,98.074074 20.444444,98.37037 5.037037,87.703704 3.8518519,74.37037 2.6666667,61.037037 3.1444018,42.46725 9.4814811,41.481482 z"
           style="fill:#2b0000;fill-opacity:1;fill-rule:evenodd;stroke:#000000;stroke-width:1px;stroke-linecap:butt;stroke-linejoin:miter;stroke-opacity:1"
           inkscape:connector-curvature="0" />
      </g>
      <g
         inkscape:label="Pattern"
         id="layer4">
        <path
           id="path2514"
           d="M 41.481481,110.81481 40.592593,90.962963 c 0,0 8.296296,8.296296 12.444444,7.407407 4.148148,-0.888889 10.074074,-8.592592 10.074074,-8.592592 l 4.148148,1.481481 3.851852,-4.74074 0.296296,-10.370371 c 0,0 5.037037,-2.074074 8,-5.925926 2.962963,-3.851852 3.25926,-11.555555 3.25926,-11.555555 L 85.62963,56 l 3.851851,2.666667 2.666667,-4.740741 c 0,0 -16.888889,-18.666667 -18.962963,-19.555556 -2.074074,-0.888889 19.851852,13.925926 24,19.25926 4.148145,5.333333 3.259255,-6.222223 1.481482,-7.111111 -1.777778,-0.888889 -7.703704,-6.814815 -7.703704,-6.814815 l 10.666667,7.111111 3.25926,-0.888889 -7.407409,-8.592593 c 0,0 -15.407407,-8.888889 -20.444444,-8.296296 C 72,29.62963 96,34.962963 99.851852,36.148148 c 3.851848,1.185185 7.111108,0 7.111108,0 0,0 -13.037034,-9.777778 -17.777775,-10.37037 -4.740741,-0.592593 15.703705,1.185185 15.703705,1.185185 l -4.14815,-3.851852 -17.185184,0.296296 14.518518,-0.888888 c 0,0 -5.62963,-3.555556 -7.703704,-3.25926 -2.074074,0.296297 -16.888889,3.555556 -16.888889,3.555556 l 18.962963,-5.037037 -8,-1.481482 -13.333333,4.740741 10.37037,-5.333333 -4.74074,-0.888889 -11.555556,5.037037 10.666667,-4.444445 -11.259259,-1.185185 -3.851852,1.185185 -1.185185,-0.592592 -9.185186,-0.296296 0.592593,4.74074 7.111111,-2.666666 c 0,0 -26.666667,12.148148 -27.851852,18.37037 -1.185185,6.222222 -2.666666,14.814815 0.592593,20.444444 3.259259,5.62963 6.222222,12.740741 10.962963,11.851852 4.740741,-0.888889 2.666666,1.185185 1.481481,2.666667 -1.185185,1.481481 -7.111111,2.666667 -8.592592,4.740741 -1.481482,2.074074 -0.888889,26.074073 -0.888889,26.074073 l -1.185185,-24.296296 -4.444445,22.518519 5.62963,3.851847 -2.666667,0.88889 -4.444444,-4.444441 c 0,0 -0.592593,7.407411 2.074074,8.592591 2.666666,1.18519 10.37037,0.88889 10.37037,0.88889 l 2.37037,2.07407 z"
           style="fill:#ecba1c;fill-opacity:1;fill-rule:evenodd;stroke:#000000;stroke-width:1px;stroke-linecap:butt;stroke-linejoin:miter;stroke-opacity:1"
           inkscape:connector-curvature="0" />
        <path
           id="path2516"
           d="m 57.777778,89.481481 c 0,0 -5.037037,5.62963 -8,2.074075 C 46.814815,88 43.259259,78.518519 45.925926,76.148148 c 2.666667,-2.37037 5.333333,1.777778 5.333333,1.777778 0,0 -4.444444,2.962963 -1.777778,5.62963 2.666667,2.666666 4.444445,5.037037 5.037038,3.851851 0.592592,-1.185185 2.074074,-4.74074 2.074074,-4.74074 l 6.518518,-8 5.333333,0.592592 -6.814814,-2.37037 -6.222223,-9.481482 -2.666666,7.111112 L 55.703704,80 50.962963,72 c 0,0 3.851852,-7.703704 0.888889,-8.296296 C 48.888889,63.111111 44.148148,64.592593 41.481481,60.740741 38.814815,56.888889 33.185185,52.444444 34.962963,48 c 1.777778,-4.444444 7.703704,-9.777778 12.148148,-10.074074 4.444445,-0.296296 10.666667,5.333333 11.259259,6.518518 0.592593,1.185186 2.666667,10.666667 -1.481481,10.370371 -4.148148,-0.296296 -8.592593,0.296296 -10.37037,-1.777778 -1.777778,-2.074074 -1.185186,-5.333333 -0.296297,-7.703704 0.888889,-2.37037 3.851852,-1.481481 3.851852,-1.481481 0,0 -0.296296,5.925926 1.481482,6.518518 1.777777,0.592593 3.555555,0.296297 3.555555,-1.777777 0,-2.074074 0.888889,-3.555556 -0.592592,-5.037037 C 53.037037,42.074074 51.555556,39.111111 49.481481,40 c -2.074074,0.888889 -5.629629,1.185185 -6.222222,2.962963 -0.592592,1.777778 -4.74074,4.444444 -1.185185,7.703704 3.555556,3.259259 3.259259,9.481481 7.111111,9.481481 3.851852,0 9.185185,0.592593 10.962963,-1.777778 C 61.925926,56 63.407407,54.814815 64,51.555556 64.592593,48.296296 64,41.777778 61.037037,39.111111 58.074074,36.444444 57.185185,33.185185 56,32.592593 54.814815,32 64.592593,42.666667 64.592593,42.666667 l 2.962963,9.185185 c 0,0 1.185185,5.333333 2.962963,5.925926 1.777777,0.592592 5.333333,3.259259 5.925925,0.296296 0.592593,-2.962963 -1.481481,-6.518518 -3.555555,-8.888889 C 70.814815,46.814815 68.740741,41.481481 66.666667,40 64.592593,38.518519 62.222222,34.37037 62.222222,34.37037 l 9.481482,9.777778 5.629629,11.259259 c 0,0 0.888889,7.111112 -1.185185,8.888889 -2.074074,1.777778 -4.740741,4.148148 -4.740741,4.148148 l -0.592592,-5.037037 0.888889,-3.555555 c 0,0 -9.481482,0.888889 -11.25926,2.666667 -1.777777,1.777777 -2.962963,6.222222 -0.592592,7.111111 2.37037,0.888889 8.296296,5.925926 9.777778,5.333333 1.481481,-0.592593 10.962963,-5.037037 11.259259,-8.296296 0.296296,-3.25926 4.740741,-8.296297 2.666667,-11.25926 C 81.481481,52.444444 79.703704,48 77.925926,46.222222 76.148148,44.444444 74.074074,42.074074 72.296296,39.703704 70.518519,37.333333 85.037037,54.814815 85.037037,54.814815 l 0,0.296296 c 0,0 -2.074074,6.518519 -2.37037,8 C 82.37037,64.592593 78.222222,72 75.555556,73.481481 c -2.666667,1.481482 -8.888889,3.851852 -8.888889,3.851852 l -8.888889,12.148148 z"
           style="fill:#ec8e1c;fill-opacity:1;fill-rule:evenodd;stroke:#000000;stroke-width:1px;stroke-linecap:butt;stroke-linejoin:miter;stroke-opacity:1"
           inkscape:connector-curvature="0" />
        <path
           id="path2518"
           d="m 93.62963,105.48148 -5.925926,0.59259 c 0,0 5.629629,-7.111107 8.592592,-7.7037 2.962963,-0.592592 2.370371,0.888889 1.481482,3.25926 -0.888889,2.37037 2.074074,1.18518 4.148152,0 2.07407,-1.18519 8,-6.222223 8,-6.222223 l -4.44445,2.666667 c 0,0 7.11111,-11.259259 8.88889,-13.037037 1.77778,-1.777778 -3.25926,-17.481481 -3.25926,-21.333333 0,-3.851852 -2.07407,-21.62963 0.2963,-25.185185 2.37037,-3.555556 6.22222,-2.962963 6.22222,-2.962963 l 9.48148,23.407407 c 0,0 -0.2963,13.62963 -2.96296,14.222222 -2.66667,0.592593 -5.03704,1.481482 -5.62963,-2.962963 -0.59259,-4.444444 -1.18519,-9.777778 0,-13.333333 1.18518,-3.555556 1.77778,-4.740741 3.85185,-3.259259 2.07407,1.481481 2.66667,1.777777 2.66667,5.629629 0,3.851852 2.66666,10.074074 -0.5926,8.592593 -3.25925,-1.481482 -2.07407,-2.666667 -3.85185,-5.62963 -1.77778,-2.962963 -0.59259,-6.814815 1.18519,-5.333333 1.77778,1.481481 1.48148,2.666667 1.18518,4.148148 l 0.2963,0.592593 c 0,0 0.2963,-5.62963 -1.77778,-6.814815 -2.07407,-1.185185 -1.77778,8.592592 -0.88889,12.740741 0.88889,4.148148 2.96297,2.962963 4.74074,2.666666 1.77778,-0.296296 0.5926,-10.962963 0.5926,-10.962963 l -3.55556,-8.888889 c 0,0 -4.14815,-6.222222 -5.62963,-6.814814 -1.48148,-0.592593 -3.25926,5.925925 -4.14815,9.185185 -0.88889,3.259259 4.74074,24 4.74074,24 l 5.92593,0.296296 c 0,0 -3.85185,8.296296 -5.03704,10.37037 -1.18518,2.074074 -16,17.185183 -16,17.185183 l -8.59259,0.88889 z"
           style="fill:#ecba1c;fill-opacity:1;fill-rule:evenodd;stroke:#000000;stroke-width:1px;stroke-linecap:butt;stroke-linejoin:miter;stroke-opacity:1"
           inkscape:connector-curvature="0" />
        <path
           id="path2520"
           d="m 21.333333,48 2.370371,-7.407407 c 0,0 -4.148148,-1.481482 -5.333334,0.296296 -1.185185,1.777778 -1.777777,-1.185185 -1.777777,-1.185185 l 8,-11.25926 c 0,0 -7.407408,1.481482 -9.185186,4.740741 -1.777777,3.259259 1.185186,-3.259259 1.185186,-3.259259 l -5.62963,5.925926 -0.296296,1.777778 0.296296,-4.740741 -2.6666667,4.740741 -2.3703704,0.296296 -0.2962963,5.62963 -0.5925926,0.296296 c 0,0 2.962963,-2.962963 7.111111,-3.555556 C 16.296296,39.703704 21.333333,48 21.333333,48 z"
           style="fill:#ecba1c;fill-opacity:1;fill-rule:evenodd;stroke:#000000;stroke-width:1px;stroke-linecap:butt;stroke-linejoin:miter;stroke-opacity:1"
           inkscape:connector-curvature="0" />
        <path
           id="path2522"
           d="m 53.333333,115.25926 5.037037,-5.03704 -11.851851,1.48148 -1.777778,-4.74074 10.666666,-3.55555 L 43.259259,104 l -1.481481,7.40741 -3.555556,-2.07408 -4.148148,2.96297 -0.296296,0.29629 c 2.37037,1.18519 19.555555,2.66667 19.555555,2.66667 z"
           style="fill:#ecba1c;fill-opacity:1;fill-rule:evenodd;stroke:#000000;stroke-width:1px;stroke-linecap:butt;stroke-linejoin:miter;stroke-opacity:1"
           inkscape:connector-curvature="0" />
        <path
           id="path3299"
           d="m 42.074074,29.037037 c 0,0 17.777778,-13.333333 21.62963,-13.037037 3.851852,0.296296 -1.777778,4.148148 -1.777778,4.148148 L 50.074074,29.037037 64,20.444444 l 3.851852,0.592593 7.407407,-4.740741 -8.592592,6.814815 2.666666,0.296296 15.703704,-6.222222 -15.111111,6.518519 3.555555,1.481481 15.703704,-4.444444 3.555556,0.296296 L 73.777778,24.888889 77.62963,26.37037 97.185185,24 l -8.888889,0.888889 -8.888889,2.37037 12.444445,0.296297 8.296298,5.629629 -4.740743,0.296296 -10.37037,-4.444444 -10.37037,-1.481481 1.185185,4.148148 L 90.37037,35.259259 97.185185,40 l -0.296296,0.592593 -9.481482,-2.962963 3.25926,3.555555 6.222222,6.518519 0.296296,3.555555 L 84.740741,40 74.962963,33.481481 69.037037,32.296296 87.703704,51.555556 86.518519,52.148148 69.037037,34.962963 72,41.185185 79.111111,50.37037 78.222222,52.148148 64.888889,33.777778 58.666667,31.407407 68.740741,44.740741 57.777778,31.703704 53.333333,29.037037 c 0,0 2.074074,6.222222 3.851852,7.703704 1.777778,1.481481 5.62963,6.222222 5.62963,9.185185 0,2.962963 -1.185185,9.777778 -3.555556,10.962963 C 56.888889,58.074074 56.888889,56 56.888889,56 c 0,0 8,-2.37037 4.740741,-9.185185 C 58.37037,40 50.37037,35.555556 46.814815,35.555556 c -3.555556,0 -11.555556,7.407407 -11.555556,7.407407 0,0 -3.259259,4.148148 -2.666666,6.222222 0.592592,2.074074 4.444444,11.851852 7.111111,13.037037 2.666666,1.185185 10.37037,3.259259 11.555555,2.962963 1.185185,-0.296296 -1.481481,4.444445 -1.481481,4.444445 l -4.148148,-0.888889 1.185185,-2.666667 c 0,0 -7.111111,-0.592593 -8.592593,-1.481481 -1.481481,-0.888889 -7.703703,-10.666667 -7.703703,-12.444445 0,-1.777778 0.592592,-11.851852 1.185185,-13.333333 0.592592,-1.481482 7.703703,-3.259259 9.481481,-3.555556 1.777778,-0.296296 8.296296,-2.962963 8.296296,-2.962963 L 40,33.185185 33.777778,34.37037 c 0,0 0.888889,-5.037037 4.148148,-4.444444 3.259259,0.592593 4.444444,-0.592593 4.148148,-0.888889 z"
           style="fill:#ec8e1c;fill-opacity:1;fill-rule:evenodd;stroke:#000000;stroke-width:1px;stroke-linecap:butt;stroke-linejoin:miter;stroke-opacity:1"
           inkscape:connector-curvature="0" />
        <path
           id="path3301"
           d="m 7.4074074,40.592593 2.0740741,-2.666667 0.8888885,1.185185 2.666667,-4.148148 0.888889,1.481481 6.518518,-6.222222 -5.037037,7.703704 6.518519,-6.814815 -6.222222,7.703704 1.481481,3.555555 2.666667,0 2.074074,-0.888889 -1.185185,3.25926 -1.185185,-0.296297 c 0,0 -3.555556,-5.037037 -7.111112,-4.74074 C 8.8888889,40 7.4074074,40.592593 7.4074074,40.592593 z"
           style="fill:#ec8e1c;fill-opacity:1;fill-rule:evenodd;stroke:#000000;stroke-width:1px;stroke-linecap:butt;stroke-linejoin:miter;stroke-opacity:1"
           inkscape:connector-curvature="0" />
        <path
           id="path3303"
           d="m 43.555556,71.111111 4.74074,1.185185 2.074074,2.074074 -3.259259,0 -3.555555,0.888889 c 0,0 -0.296297,10.370371 1.185185,11.555556 1.481481,1.185185 4.148148,7.703704 6.222222,7.703704 2.074074,0 13.925926,-7.703704 13.925926,-9.481482 0,-1.777778 3.851852,-5.62963 3.851852,-5.62963 l 1.185185,4.740741 -0.888889,2.666667 -2.666667,2.37037 L 63.703704,88 l 3.555555,-4.148148 -4.148148,4.740741 c 0,0 -7.703704,8 -10.37037,8 -2.666667,0 -12.148148,-8.888889 -12.148148,-8.888889 0,0 -2.666667,2.37037 -2.370371,4.148148 0.296297,1.777778 0.888889,14.222218 0.888889,14.222218 L 37.037037,96 l 0.296296,9.18519 -5.925926,1.77777 -2.37037,-3.85185 L 32,105.18519 36.148148,104.2963 35.555556,100.44444 29.333333,98.074074 32,86.814815 l -0.592593,10.962963 2.962963,3.555552 1.777778,-7.7037 1.777778,-8.296297 4.740741,1.777778 -3.555556,-3.555555 3.259259,1.777777 L 41.777778,80 36.444444,85.925926 35.259259,85.333333 40,79.111111 l -1.777778,-0.296296 -3.555555,5.037037 2.37037,-8.296296 4.148148,-0.296297 -0.296296,-2.074074 -1.777778,0.296296 c 0,0 3.851852,-1.481481 4.444445,-2.37037 z"
           style="fill:#ec8e1c;fill-opacity:1;fill-rule:evenodd;stroke:#000000;stroke-width:1px;stroke-linecap:butt;stroke-linejoin:miter;stroke-opacity:1"
           inkscape:connector-curvature="0" />
      </g>
      <g
         style="display:inline"
         inkscape:label="Colour"
         id="layer5" />
    </g>
  </g>
</svg>
